<svg xmlns:dc="http://purl.org/dc/elements/1.1/"
  xmlns:cc="http://creativecommons.org/ns#"
  xmlns:rdf="http://www.w3.org/1999/02/22-rdf-syntax-ns#"
  xmlns:svg="http://www.w3.org/2000/svg"
  xmlns="http://www.w3.org/2000/svg" viewBox="0 0 4946.6665 4946.6665" height="4946.6665" width="4946.6665" xml:space="preserve" id="svg2" version="1.1">
  <metadata id="metadata8">
    <rdf:RDF>
      <cc:Work rdf:about="">
        <dc:format>image/svg+xml</dc:format>
        <dc:type rdf:resource="http://purl.org/dc/dcmitype/StillImage" />
      </cc:Work>
    </rdf:RDF>
  </metadata>
  <defs id="defs6">
    <clipPath id="clipPath24" clipPathUnits="userSpaceOnUse">
      <path id="path22" d="m 19029,4879.7 c -1714.8,0 -3091.6,239.3 -3805,372 -991.4,184.5 -1927.2,349.5 -2812.4,569 l 12708.6,230.9 C 22970.6,5140 20816.1,4879.7 19029,4879.7 m -8189.8,1423.2 c -966.8,368.1 -1867.7,873.4 -2710.56,1634.8 -3620.2,3270.8 -4220.57,9367.2 -2564.29,14398.5 165.73,-928.5 328.27,-2006.1 476.4,-3251.2 530.03,-4455 3133.35,-6998.9 4649.15,-8125 V 6836.8 c 0,-195.6 54.6,-378.3 149.3,-533.9 m 18150.5,2254.2 -97,1904 c 5280.3,6222.2 1210.3,14898.7 367.1,16530.6 -34.4,66.6 -100.6,101.5 -165.2,101.5 -53.5,0 -105.8,-23.9 -138.1,-73.5 -296.8,-456.2 -576.1,-904.7 -838.3,-1344.9 l -108.6,2132 c -39.8,781.6 -685,1394.8 -1467.6,1394.8 H 13718 c -549.5,65.2 -997.3,123.4 -1316.5,166.7 -22.3,3 -44.3,4.5 -66,4.5 -170.9,0 -323.8,-90.3 -410,-227.8 -518,-138.6 -936.6,-520.5 -1126,-1015.6 -188.8,412.2 -393.9,791.4 -606.9,1138.1 1603.7,1418.5 3814,2821.3 6516.6,3174.6 135.7,17.7 236.9,27.8 325.6,37.2 216.8,22.9 718.5,70.7 1416.6,70.7 2066,0 5855.6,-417.9 9097,-3133.6 620.8,-520.1 1619.8,-1458.2 2546.2,-2889 3387.4,-5231.5 3398.2,-13334.1 -909.8,-17774.6 -65.7,-67.7 -130.7,-132.9 -195.1,-195.7 M 8006.82,24346.3 c -360.85,388.9 -719.97,739.9 -1065.82,1053.9 108.23,183.3 220.04,363.2 335.51,539.6 79.8,122 274.14,413 576.05,808.5 29.86,-762.9 74.92,-1570.5 154.26,-2402" />
    </clipPath>
    <linearGradient id="linearGradient32" spreadMethod="pad" gradientTransform="matrix(-19635.5,20902.3,20902.3,19635.5,35080.4,366.899)" gradientUnits="userSpaceOnUse" y2="0" x2="1" y1="0" x1="0">
      <stop id="stop28" offset="0" style="stop-opacity:1;stop-color:#dae3fe" />
      <stop id="stop30" offset="1" style="stop-opacity:1;stop-color:#e9effd" />
    </linearGradient>
    <clipPath id="clipPath42" clipPathUnits="userSpaceOnUse">
      <path id="path40" d="m 28892.7,10461.1 -169.1,3322.7 c 59.5,319.3 113.4,640.7 162.1,963.9 94.1,660.2 168.5,1326.8 224.3,1998.6 104.9,1345.4 140.4,2709.1 109.7,4083.5 -14.7,687.1 -44.7,1376.6 -89.7,2067.9 -46.9,691.6 -105.1,1384.1 -191.5,2079.9 -2,16.4 -16,30.3 -31.4,31.1 -0.4,0.1 -0.9,0.1 -1.4,0.1 -14.6,0 -24.7,-12.4 -22.8,-28.3 l 0.1,-0.6 c 82.9,-692.5 138,-1384.7 181.6,-2074.5 41.8,-689.8 68.6,-1377.7 80.1,-2063 24.3,-1370.8 -17.6,-2730.2 -128.4,-4070 -58.8,-668.9 -136.1,-1332.4 -233.1,-1989 -26.6,-171.3 -54.8,-342 -84.4,-512.2 l -580.6,11403.6 c 262.2,440.2 541.5,888.7 838.3,1344.9 32.3,49.6 84.6,73.5 138.1,73.5 64.6,0 130.8,-34.9 165.2,-101.5 843.2,-1631.9 4913.2,-10308.4 -367.1,-16530.6" />
    </clipPath>
    <linearGradient id="linearGradient50" spreadMethod="pad" gradientTransform="matrix(-19635.5,20902.3,20902.3,19635.5,35080.4,366.899)" gradientUnits="userSpaceOnUse" y2="0" x2="1" y1="0" x1="0">
      <stop id="stop46" offset="0" style="stop-opacity:1;stop-color:#a2befb" />
      <stop id="stop48" offset="1" style="stop-opacity:1;stop-color:#a5c1fb" />
    </linearGradient>
    <clipPath id="clipPath60" clipPathUnits="userSpaceOnUse">
      <path id="path58" d="m 28723.6,13783.8 -24.8,487.4 c 29.6,170.2 57.8,340.9 84.4,512.2 97,656.6 174.3,1320.1 233.1,1989 110.8,1339.8 152.7,2699.2 128.4,4070 -11.5,685.3 -38.3,1373.2 -80.1,2063 -43.6,689.8 -98.7,1382 -181.6,2074.5 l -0.1,0.6 c -1.9,15.9 8.2,28.3 22.8,28.3 0.5,0 1,0 1.4,-0.1 15.4,-0.8 29.4,-14.7 31.4,-31.1 86.4,-695.8 144.6,-1388.3 191.5,-2079.9 45,-691.3 75,-1380.8 89.7,-2067.9 30.7,-1374.4 -4.8,-2738.1 -109.7,-4083.5 -55.8,-671.8 -130.2,-1338.4 -224.3,-1998.6 -48.7,-323.2 -102.6,-644.6 -162.1,-963.9" />
    </clipPath>
    <linearGradient id="linearGradient68" spreadMethod="pad" gradientTransform="matrix(-19635.5,20902.3,20902.3,19635.5,35080.4,366.899)" gradientUnits="userSpaceOnUse" y2="0" x2="1" y1="0" x1="0">
      <stop id="stop64" offset="0" style="stop-opacity:1;stop-color:#ccdbfd" />
      <stop id="stop66" offset="1" style="stop-opacity:1;stop-color:#d0defd" />
    </linearGradient>
    <clipPath id="clipPath94" clipPathUnits="userSpaceOnUse">
      <path id="path92" d="m 11718.1,5808.2 c -371.8,0 -698.3,197.9 -878.9,494.7 -94.7,155.6 -149.3,338.3 -149.3,533.9 v 4123.2 945.1 442.7 8100.6 7085.3 c 0,209.9 38.8,410.7 109.6,595.7 189.4,495.1 608,877 1126,1015.6 -46.9,-74.9 -74.1,-163.9 -73.5,-259.9 l 127.6,-21696.3 c 1.2,-208.2 158.4,-382.5 365.5,-404.2 830.4,-87 2025.6,-121.1 3392.9,-121.1 4234.7,0 10113.4,328.1 11864.2,431.7 283.1,16.7 499.4,258.9 484.4,542.2 l -1097.9,20656 c -12.7,239.8 -211.3,423.9 -447.4,423.9 -11.6,0 -23.3,-0.4 -35,-1.3 -1101.8,-84.6 -2249.4,-119.7 -3396.5,-119.7 -3641.5,0 -7274.1,354.2 -9391.8,605.3 h 12824 c 782.6,0 1427.8,-613.2 1467.6,-1394.8 l 108.6,-2132 580.6,-11403.6 24.8,-487.4 169.1,-3322.7 97,-1904 66.9,-1314.7 c 31.2,-611.5 -450.3,-1127.4 -1062.5,-1138.5 l -2873.9,-52.3 -12708.6,-230.9 -674.4,-12.3 c -6.3,-0.1 -12.7,-0.2 -19.1,-0.2" />
    </clipPath>
    <linearGradient id="linearGradient102" spreadMethod="pad" gradientTransform="matrix(-154.012,-26130.1,-26130.1,154.012,19981.2,35542)" gradientUnits="userSpaceOnUse" y2="0" x2="1" y1="0" x1="0">
      <stop id="stop98" offset="0" style="stop-opacity:1;stop-color:#09005d" />
      <stop id="stop100" offset="1" style="stop-opacity:1;stop-color:#1a0f91" />
    </linearGradient>
    <clipPath id="clipPath152" clipPathUnits="userSpaceOnUse">
      <path id="path150" d="m 16389.9,24805.6 v 2043.7 h 380.3 v -1711 h 527 v -332.7 z" />
    </clipPath>
    <linearGradient id="linearGradient160" spreadMethod="pad" gradientTransform="matrix(-460.177,-8896.86,-8896.86,460.177,17287.9,34418.8)" gradientUnits="userSpaceOnUse" y2="0" x2="1" y1="0" x1="0">
      <stop id="stop156" offset="0" style="stop-opacity:1;stop-color:#4f52ff" />
      <stop id="stop158" offset="1" style="stop-opacity:1;stop-color:#4042e2" />
    </linearGradient>
    <clipPath id="clipPath170" clipPathUnits="userSpaceOnUse">
      <path id="path168" d="m 17866.1,25830.2 c 0,-232.9 29.4,-410.5 88.1,-532.6 58.7,-122.1 144.9,-183.1 258.6,-183.1 229.2,0 343.9,238.6 343.9,715.7 0,477.2 -113.8,715.8 -341.1,715.8 -115.6,0 -202.7,-60.8 -261.4,-182.5 -58.7,-121.6 -88.1,-299.4 -88.1,-533.3 z m 1080.6,0 c 0,-338.2 -63.4,-598.3 -190.1,-780 -126.8,-181.7 -308.1,-272.6 -543.8,-272.6 -236.8,0 -418.5,90.6 -545.2,271.9 -126.8,181.3 -190.1,442.5 -190.1,783.5 0,338.3 63.3,597.6 190.1,778 126.7,180.3 309.4,270.5 548,270.5 235.7,0 416.6,-90.7 542.4,-271.9 125.8,-181.3 188.7,-441.1 188.7,-779.4 z" />
    </clipPath>
    <linearGradient id="linearGradient178" spreadMethod="pad" gradientTransform="matrix(-460.177,-8896.87,-8896.87,460.177,18652.6,34348.2)" gradientUnits="userSpaceOnUse" y2="0" x2="1" y1="0" x1="0">
      <stop id="stop174" offset="0" style="stop-opacity:1;stop-color:#4f52ff" />
      <stop id="stop176" offset="1" style="stop-opacity:1;stop-color:#4042e2" />
    </linearGradient>
    <clipPath id="clipPath188" clipPathUnits="userSpaceOnUse">
      <path id="path186" d="m 20023.1,25658.3 -109.1,475.3 c -6.5,28.9 -21.2,101.3 -44,217.4 -22.9,116 -36.6,193.6 -41.2,232.7 -12.2,-80.2 -27.5,-168.4 -46.2,-264.9 -18.6,-96.4 -67.1,-316.6 -145.4,-660.5 z m 188.7,-852.7 -117.4,515.8 h -532.6 l -117.5,-515.8 h -380.2 l 506,2052.1 h 515.9 l 507.4,-2052.1 z" />
    </clipPath>
    <linearGradient id="linearGradient196" spreadMethod="pad" gradientTransform="matrix(-460.177,-8896.86,-8896.86,460.177,20317.9,34262.1)" gradientUnits="userSpaceOnUse" y2="0" x2="1" y1="0" x1="0">
      <stop id="stop192" offset="0" style="stop-opacity:1;stop-color:#4f52ff" />
      <stop id="stop194" offset="1" style="stop-opacity:1;stop-color:#4042e2" />
    </linearGradient>
    <clipPath id="clipPath206" clipPathUnits="userSpaceOnUse">
      <path id="path204" d="m 22205.2,24805.6 h -464.1 l -631.9,1480.4 h -18.1 c 23.2,-112.8 34.9,-234 34.9,-363.5 v -1116.9 h -352.3 v 2043.7 h 466.9 l 626.3,-1465 h 15.4 c -17.7,97.9 -26.6,214.3 -26.6,349.5 v 1115.5 h 349.5 z" />
    </clipPath>
    <linearGradient id="linearGradient214" spreadMethod="pad" gradientTransform="matrix(-460.177,-8896.86,-8896.86,460.177,21921.4,34179.1)" gradientUnits="userSpaceOnUse" y2="0" x2="1" y1="0" x1="0">
      <stop id="stop210" offset="0" style="stop-opacity:1;stop-color:#4f52ff" />
      <stop id="stop212" offset="1" style="stop-opacity:1;stop-color:#4042e2" />
    </linearGradient>
    <clipPath id="clipPath224" clipPathUnits="userSpaceOnUse">
      <path id="path222" d="m 19621.9,30814.5 c -221.6,0 -401.3,179.7 -401.3,401.3 0,221.6 179.7,401.3 401.3,401.3 221.7,0 401.3,-179.7 401.3,-401.3 0,-221.6 -179.6,-401.3 -401.3,-401.3 z m 707.8,1190.9 c -512.4,356.5 -957.9,349.4 -1271.5,256.9 -286.1,-84.4 -471.5,-360.6 -444.3,-657.7 l 135.3,-1476.2 1609.3,-142.8 c 0,0 976,1320.8 -28.8,2019.8 z" />
    </clipPath>
    <linearGradient id="linearGradient232" spreadMethod="pad" gradientTransform="matrix(-6524.22,-8582.45,-8582.45,6524.22,21912.2,34122.7)" gradientUnits="userSpaceOnUse" y2="0" x2="1" y1="0" x1="0">
      <stop id="stop228" offset="0" style="stop-opacity:1;stop-color:#09005d" />
      <stop id="stop230" offset="1" style="stop-opacity:1;stop-color:#1a0f91" />
    </linearGradient>
    <clipPath id="clipPath246" clipPathUnits="userSpaceOnUse">
      <path id="path244" d="m 16552.7,29174.4 v 742.2 c 0,256.2 212.3,461.4 468.4,452.7 l 5117.1,-175.4 c 227,-7.7 411,-187 424.6,-413.8 l 42.7,-713.2 z" />
    </clipPath>
    <linearGradient id="linearGradient254" spreadMethod="pad" gradientTransform="matrix(-6524.23,-8582.47,-8582.47,6524.23,22627.8,33578.7)" gradientUnits="userSpaceOnUse" y2="0" x2="1" y1="0" x1="0">
      <stop id="stop250" offset="0" style="stop-opacity:1;stop-color:#09005d" />
      <stop id="stop252" offset="1" style="stop-opacity:1;stop-color:#1a0f91" />
    </linearGradient>
    <clipPath id="clipPath276" clipPathUnits="userSpaceOnUse">
      <path id="path274" d="m 18777.4,8548.6 c 47.9,611.4 255.2,1210.8 580.7,1736.5 163.5,262.6 355.7,508.6 575.9,727.8 56.5,53.3 111.5,108.3 169.3,160.2 59.5,50.1 117.6,101.9 178.5,150.4 62.2,46.7 123.8,94.5 187.7,138.9 l 97.6,64.3 48.8,32.2 24.4,16.1 c 8.9,5.5 20.8,12.5 31.4,18.2 171.4,94.6 417.5,99 583.7,-68 40.5,-40 68.7,-88.3 89.7,-135.6 9.5,-23.8 18.9,-47.9 24.4,-71.4 7.2,-23.9 11,-47 15,-70.2 14.7,-92.6 10.5,-178.6 1.9,-261.8 -4.4,-41.5 -11.2,-82.3 -18.4,-122 l -22.3,-112.1 c -14.3,-74.9 -31,-149.2 -47.4,-223.7 -32.8,-148.8 -70.1,-296.6 -109.2,-443.9 -159.1,-588.4 -369.8,-1162.9 -630.4,-1713.7 l -99.8,-205.6 c -34.9,-67.6 -69,-135.8 -104.6,-203.1 l -54.1,-100.6 -27,-50.3 -29.8,-52.5 c -41.2,-69.9 -87.2,-137.7 -140.9,-202.2 -53.8,-64.2 -114.7,-126 -190.6,-178 -75.2,-51.3 -170.1,-93 -275.3,-98.1 -26.1,-2.7 -52.1,0.1 -78.1,2.9 -26.4,1.4 -50.5,9.9 -75.6,15.8 -49.7,13.5 -96.8,37.6 -138.2,66.9 -83.4,59.1 -143.3,140.9 -180.4,229.2 -35.8,87.1 -51.5,178.1 -52.2,266.4 -1,88.4 12.2,172.6 30.4,252 18.5,79.7 41.5,154.2 66.9,227.1 l 37.5,110.1 42.1,108.2 c 113.1,288.5 262.7,561.4 437.5,816 174.2,255.2 379.9,488 606.3,697.3 l 42.3,39.4 44.1,37.5 88.3,74.6 c 30.1,24.2 61,47.3 91.4,70.9 30.7,23.4 60.7,47.6 92.7,69.1 63.2,44.2 125.7,89.2 191.7,129.2 l 48.9,30.8 24.4,15.4 c 4.3,2.7 7.5,4.9 12.8,8 l 16.1,9 c 43.5,22.8 91,38.1 140.2,43.3 97.7,11.5 203.3,-17.6 279.3,-87 39.2,-34.5 70.6,-84 84.9,-134.9 15,-51.1 14.5,-100.2 10.1,-144.5 -4.7,-44.5 -14.2,-85.2 -24.4,-123.5 l -30.6,-109.6 -61,-217.2 c -80.6,-289.7 -164.6,-578.6 -246.8,-868 l -0.2,-0.6 -127,22.7 c 9.5,97.3 35.7,195.7 89.4,284 27.4,43.8 60.8,84.4 102.8,118.1 42,34.4 90.8,58.4 142.2,73.6 51.6,14.5 106.8,19.7 162.1,10.6 27.5,-4.5 55,-12.2 81,-24.4 13.2,-5.5 25.5,-13.1 37.8,-20.4 l 25.6,-16.1 c 62.2,-35 139.8,-41.5 203.5,-13.4 16.2,6.4 31,15.6 45,25.7 6.6,5.6 13.8,10.6 19.7,17 l 9.7,9.4 11.5,12.3 92.6,98.8 185.1,197.4 185.1,197.4 92.5,98.7 c 22.8,24 55.4,45.1 91.7,52.3 36.2,7.7 73.9,2.6 105.9,-12 32.1,-14.5 59.9,-38.3 78.8,-69.3 19,-30.9 27.3,-69.8 23,-105.3 -0.5,-9.2 -2.5,-17.6 -4.9,-25.9 -2.1,-8 -5,-18.3 -6.6,-22.1 l -11,-31.1 -21,-62.7 c -27.2,-83.9 -50.2,-169.2 -69.4,-255.2 -19,-86.1 -34.1,-173.1 -45,-260.6 -1.2,-10.8 -2.9,-22.3 -3.7,-32.4 l -0.8,-26.7 c -1.2,-9.1 0.5,-17.7 1.7,-26.3 1.7,-8.5 0.9,-17.6 4.1,-25.7 7.4,-34.1 25.5,-64.5 47.7,-91.1 22.2,-27.1 53.1,-46.9 85.4,-60.6 16.1,-7.9 33.6,-10.9 50.6,-15.3 17.5,-1.5 35,-4.2 52.4,-2 34.4,2.7 68.8,11.7 98.1,31.3 l 11.5,6.5 10.3,8.5 20.9,17.1 47.8,46.8 c 127.3,125 249.2,255.7 364.7,391.7 230.9,272.2 437.5,565 616.4,873.9 l 65.6,116.7 31.6,58.9 15.8,29.5 4,7.4 v 0.5 l -0.1,-1.5 c -0.2,-5 2,-5.9 1.4,-5.5 0,0 1,-0.6 3,-0.4 1.9,0.4 4.6,0.9 4.6,1.3 h -0.3 l -5.7,-5.8 -11.4,-11.5 c -7.7,-7.7 -15.1,-15.5 -22.5,-23.5 -14.9,-15.6 -29.2,-31.9 -43.5,-48.2 -56.5,-65.7 -108,-135.9 -153.3,-209.8 -22.6,-37 -43.9,-74.9 -63.7,-113.5 -9.7,-19.4 -19.3,-38.9 -28.3,-58.6 l -13.3,-29.7 -6.5,-14.9 -4.3,-13.4 c -25.7,-69.9 -26.1,-147 5.8,-213.2 31.2,-65.9 88,-121.9 157.2,-147 33.8,-15 70.7,-18 106.7,-19 36,3.5 72.5,9.2 106,26.4 l 25.5,11.7 28.6,16.6 c 19.1,11.3 38.5,22 57.2,33.8 37.9,22.9 75.2,46.7 112.2,71 295.5,195.1 560.1,436.9 780.1,714 l 0.1,0.1 c 22.2,28 63,32.7 91,10.5 28,-22.3 32.6,-63 10.4,-91 -228.8,-288.1 -503.5,-539.1 -810.2,-741.7 -38.5,-25.2 -77.2,-49.9 -116.6,-73.6 -19.4,-12.3 -39.5,-23.4 -59.3,-35.1 l -29.8,-17.3 -35.9,-16.9 c -47.4,-23.6 -101.4,-33.9 -154.9,-37.9 -53.6,0.4 -108.3,6.6 -157.8,27.7 -100.8,37.5 -182.3,116.5 -228,213.4 -47,97 -46.7,214.6 -9.6,312.8 l 6.4,18.7 7.1,16.1 14.3,32 c 9.7,21.3 20.1,42.3 30.6,63.2 21.3,41.7 44.2,82.6 68.7,122.5 48.9,79.9 104.5,155.7 165.6,226.7 15.5,17.7 31,35.3 47.2,52.2 7.9,8.6 16,17.1 24.3,25.4 l 12.3,12.6 6.2,6.2 c 4,3.6 8.4,7.4 12.8,10.9 17.8,13.6 41.9,24.2 66.7,25 24.5,1.3 48,-4.9 67.8,-15.9 38.9,-21.2 68.1,-66.8 64.2,-117.2 -1.3,-11.7 -3.5,-24.2 -7.8,-34.2 -2,-5.1 -4.5,-10.8 -6.5,-15.1 l -4.1,-7.5 -16.1,-30.2 -32.4,-60.2 -67,-119.3 c -182.8,-315.6 -393.9,-614.8 -629.8,-892.9 -118.1,-139 -242.6,-272.5 -372.7,-400.3 l -48.9,-47.8 -31.3,-26 -16,-12.8 -17.7,-10.5 c -46.3,-30.1 -101.9,-45.9 -156.8,-49.9 -27.7,-2.8 -55.1,0.4 -82.5,3.5 -26.7,6.1 -53.8,11.8 -78.7,23.4 -50.2,21.2 -97.2,52.3 -133,94.7 -35.6,41.8 -64,91.6 -76.3,146.1 -4.5,13.3 -4.6,27.3 -6.9,40.9 -1.8,13.7 -3.7,27.4 -2.6,41.1 l 1.5,40.8 4,34.8 c 11.4,91.6 27.2,182.5 47.1,272.6 20.1,90 44.1,179.2 72.6,266.9 l 21.9,65.6 11.6,32.6 c 2.6,6.7 2,7.5 3,10.4 0.9,2.5 1.7,5 1.4,7.2 1.1,9.2 -0.4,16.8 -4.9,24.5 -4.6,7.6 -12.6,14.6 -21.5,18.5 -19.2,7.6 -33.4,4.9 -49.7,-10.9 l -92.6,-98.7 -185.1,-197.5 -185.1,-197.4 -92.5,-98.7 -11.6,-12.3 -14.5,-14.3 c -9.6,-10 -20.7,-18.4 -31.6,-27 -22.3,-16.5 -46.3,-31 -72,-41.5 -102.6,-44.7 -223.2,-33.7 -317.9,19.9 l -31.7,19.8 c -7.1,4 -13.9,8.6 -21.7,11.6 -14.8,7.1 -31.2,11.6 -48.1,14.4 -33.9,5.8 -70.6,2.6 -105.7,-7.2 -71.2,-20.1 -129.6,-68.5 -170.3,-135.2 -40.5,-66.2 -63,-146.4 -70.8,-228.1 l -127,22.6 0.2,0.7 c 72.8,291.9 143.8,584.2 218.2,875.6 l 55.2,218.7 27.3,108.4 c 8.2,34.5 14.6,67.6 16.9,98 2.3,30.3 0.8,58 -6.5,79 -7.2,21.1 -18,37.2 -35.4,52.2 -36.6,31.5 -89,45.4 -140.1,37.9 -25.6,-3.3 -50.8,-12.4 -73.4,-25.1 l -8.4,-5 -10.9,-7.2 -22.9,-15.3 -45.7,-30.6 c -61.8,-39.5 -120.1,-84.1 -179.1,-127.6 -29.9,-21.1 -57.8,-45 -86.4,-68 -28.3,-23.2 -57.1,-45.9 -85,-69.6 l -82.1,-73.1 -41.1,-36.5 -39.5,-38.1 c -211.8,-202.3 -403.5,-426.2 -564.5,-670.7 -161.6,-243.7 -298.9,-503.8 -401,-777.3 l -38.1,-102.5 -33.5,-104.1 c -23,-69.4 -43.1,-139.2 -57.5,-206.3 -29.7,-134.3 -30.7,-263.2 14.9,-368.2 21.9,-49.8 56,-92.7 96.2,-119.8 20.2,-13.6 41.2,-24.3 64.4,-29.4 23.4,-6 46.1,-9.6 69,-7.3 45.5,2.6 94.3,21.6 142.7,55 48.2,33.4 94.3,79.5 136.3,130.8 42.1,51.5 80.6,108.7 115.2,168.7 l 25.5,45.8 25.9,49.2 51.9,98.5 c 34.2,65.9 66.8,132.6 100.3,198.8 l 95.6,201 c 248.2,539.3 452.5,1098.8 605.9,1672.1 37.7,143.5 73.5,287.4 105.1,432.4 15.7,72.5 31.8,144.9 45.5,217.8 l 21.4,109.1 c 6.1,34.3 11.6,67.8 15,101.1 6.8,66.1 8.8,131.8 -0.8,187.9 -9.3,56.4 -27.6,101.6 -53.7,126.9 -12,14.4 -28.5,23.4 -47,33 -20.7,7.5 -41.7,15.5 -64.9,16.5 -45.6,4 -96,-6.7 -141,-30.8 -6,-3.2 -10.3,-5.7 -17.5,-10.1 l -22.7,-14.8 -45.6,-29.6 -91.2,-59.1 c -59.9,-40.7 -116.8,-85.8 -176.1,-127.7 -57.6,-44 -112.7,-91.4 -169.3,-136.9 -55,-47.4 -107.4,-97.8 -161.4,-146.5 -209,-202.2 -398.3,-426 -561,-668.8 -326.8,-484.6 -551.7,-1040.4 -651.3,-1623.8 -6,-35.3 -39.4,-59.1 -74.7,-53.2 -33.2,5.7 -56.2,36 -53.8,69 z" />
    </clipPath>
    <linearGradient id="linearGradient284" spreadMethod="pad" gradientTransform="matrix(-7329.21,-11454,-11454,7329.21,26355.4,16637.1)" gradientUnits="userSpaceOnUse" y2="0" x2="1" y1="0" x1="0">
      <stop id="stop280" offset="0" style="stop-opacity:1;stop-color:#4f52ff" />
      <stop id="stop282" offset="1" style="stop-opacity:1;stop-color:#4042e2" />
    </linearGradient>
    <clipPath id="clipPath294" clipPathUnits="userSpaceOnUse">
      <path id="path292" d="m 8686.83,20281.9 c 149.68,201.3 597.44,210.7 950.45,473.8 26.22,19.6 54.54,36.3 84.13,50.2 631.29,297.8 1270.29,198.5 1740.59,-95.7 1.5,-0.9 2.9,-2 4.3,-3.1 351.2,-284.9 781,133.4 1389.1,-241.6 13.4,-8.3 25.1,-18 16.3,-31.2 -354.7,-532 -868.4,-1123 -1785.2,-1598.3 -13.6,-7 -30,-6.6 -43.2,1.2 l -2343.43,1379.4 c -22.94,13.5 -28.92,43.9 -13.04,65.3 z" />
    </clipPath>
    <linearGradient id="linearGradient302" spreadMethod="pad" gradientTransform="matrix(-920.369,-5982.37,-5982.37,920.369,11963.7,28068.5)" gradientUnits="userSpaceOnUse" y2="0" x2="1" y1="0" x1="0">
      <stop id="stop298" offset="0" style="stop-opacity:1;stop-color:#4f52ff" />
      <stop id="stop300" offset="1" style="stop-opacity:1;stop-color:#4042e2" />
    </linearGradient>
    <clipPath id="clipPath312" clipPathUnits="userSpaceOnUse">
      <path id="path310" d="M 9801.1,18295.4 C 7038.43,16782.4 4868.14,11381.1 5285.2,6925 4891.17,4413.1 19736.7,3139.1 17092.8,10155 15766.6,13104.9 14394.2,16723.9 11653,18300.9 Z" />
    </clipPath>
    <linearGradient id="linearGradient320" spreadMethod="pad" gradientTransform="matrix(-4363.42,-14590.2,-14590.2,4363.42,13694.6,17108.7)" gradientUnits="userSpaceOnUse" y2="0" x2="1" y1="0" x1="0">
      <stop id="stop316" offset="0" style="stop-opacity:1;stop-color:#4f52ff" />
      <stop id="stop318" offset="1" style="stop-opacity:1;stop-color:#4042e2" />
    </linearGradient>
    <clipPath id="clipPath330" clipPathUnits="userSpaceOnUse">
      <path id="path328" d="m 9693.41,18350.4 c -325.05,685.2 -604.83,1230 -1019.65,1866.6 -4.51,8 3.12,17.3 11.92,14.5 421.76,-130.3 859.21,-52.4 1545.32,141.4 0.9,0.3 1.9,0.7 2.7,1.2 388,250 831.4,165.1 1293.4,-32.2 l 2,-0.6 c 498.8,-99.5 668.5,-184.9 1333.1,110 9,4 17.8,-5.9 12.6,-14.3 -504.1,-625.3 -918.8,-1303.9 -1248.2,-2033.6 -2,-2.8 -1.6,-6.2 -1,-9.6 60.1,-356.2 -1889.91,-432.9 -1932.19,-43.4 z" />
    </clipPath>
    <linearGradient id="linearGradient338" spreadMethod="pad" gradientTransform="matrix(-2457.33,-4735.35,-5651.87,1135.55,11357.3,21455.3)" gradientUnits="userSpaceOnUse" y2="0" x2="1" y1="0" x1="0">
      <stop id="stop334" offset="0" style="stop-opacity:1;stop-color:#4f52ff" />
      <stop id="stop336" offset="1" style="stop-opacity:1;stop-color:#4042e2" />
    </linearGradient>
    <clipPath id="clipPath348" clipPathUnits="userSpaceOnUse">
      <path id="path346" d="m 10329.5,8000.4 -18.4,528.2 c -551.41,2.9 -1100.58,114 -1493.31,269.9 -140.23,55.6 -216.04,208.2 -181.42,355.1 l 117.1,496.6 c 42.95,182.2 236,282.4 411.07,216.1 389.32,-147.5 867.56,-258.3 1378.46,-240.6 530.3,18.5 919.6,212 906.8,580.6 -11.5,332.6 -324,519.7 -1068,691.8 -1061.78,251.1 -1832.85,683.4 -1865.04,1609.3 -29.06,836 560.07,1495.5 1614.84,1703.1 l -18.3,528.3 c -6,170 127.1,312.6 297,318.5 l 310.4,10.8 c 169.9,5.9 312.5,-127.1 318.5,-297.1 l 16.4,-474.3 c 510.3,-2.7 884.2,-76.9 1182.1,-170.1 152.7,-47.8 240.7,-207.4 204.3,-363.1 l -107.6,-459.3 c -41.5,-177.1 -225.7,-279.8 -398,-221.4 -274.5,93.1 -661.4,186.5 -1159.5,169.2 -629.2,-21.9 -799.92,-288.8 -791.8,-522.6 10,-287.6 394.4,-472.2 1221.2,-695.6 1180.8,-309.9 1683.1,-778.4 1713.4,-1650.4 27.8,-800.1 -540.5,-1539.9 -1684.9,-1759.7 l 20.6,-591.1 c 5.9,-170 -127.1,-312.6 -297.1,-318.5 l -310.4,-10.8 c -170,-5.9 -312.5,127.1 -318.4,297.1 z" />
    </clipPath>
    <linearGradient id="linearGradient354" spreadMethod="pad" gradientTransform="matrix(-7163.32,-14383.1,-14383.1,7163.32,17970.6,26008.5)" gradientUnits="userSpaceOnUse" y2="0" x2="1" y1="0" x1="0">
      <stop id="stop350" offset="0" style="stop-opacity:1;stop-color:#ff928e" />
      <stop id="stop352" offset="1" style="stop-opacity:1;stop-color:#fe7062" />
    </linearGradient>
    <clipPath id="clipPath368" clipPathUnits="userSpaceOnUse">
      <path id="path366" d="m 31417.3,19733.6 c -107,-328.9 -96.9,-606.5 64,-657.1 164.2,-51.7 312.7,156.4 423.4,508.7 102.4,325.5 116.6,600.3 -57.4,655 -164.2,51.7 -327.6,-181.1 -430,-506.6 z m 801.2,-217.7 c -190.6,-606.4 -548.2,-836.9 -843.8,-744 -295.6,92.9 -443.7,482.5 -267,1044.3 171.1,544 519.2,836.3 844.3,734.1 338.3,-106.4 430.6,-512.7 266.5,-1034.4 z m -1893.9,1884.2 c -108.4,-333.4 -96.8,-606.5 64.1,-657.1 160.9,-50.6 312.6,156.5 423.3,508.7 101,321.1 116.7,600.3 -57.4,655.1 -164.2,51.6 -327.6,-181.2 -430,-506.7 z m -418.8,-2181 2180.4,2607 229.9,-72.3 -2180.4,-2606.9 z m 1220.1,1963.4 c -192.1,-610.9 -551.6,-836 -843.8,-744 -298.9,93.9 -443.7,482.5 -271.8,1040.9 172.5,548.4 519.2,836.2 847.6,733 338.3,-106.4 432.1,-508.3 268,-1029.9 z" />
    </clipPath>
    <linearGradient id="linearGradient376" spreadMethod="pad" gradientTransform="matrix(-2249.89,-11863.1,-11863.1,2249.89,33126.8,31103.1)" gradientUnits="userSpaceOnUse" y2="0" x2="1" y1="0" x1="0">
      <stop id="stop372" offset="0" style="stop-opacity:1;stop-color:#ff928e" />
      <stop id="stop374" offset="1" style="stop-opacity:1;stop-color:#fe7062" />
    </linearGradient>
    <clipPath id="clipPath386" clipPathUnits="userSpaceOnUse">
      <path id="path384" d="m 28862.8,20433 h -363.6 v 296.4 h 363.6 v 533.9 h 282 v -533.9 h 363.6 V 20433 h -363.6 v -526.8 h -282 z" />
    </clipPath>
    <linearGradient id="linearGradient394" spreadMethod="pad" gradientTransform="matrix(-2249.89,-11863.1,-11863.1,2249.89,31073.2,31492.6)" gradientUnits="userSpaceOnUse" y2="0" x2="1" y1="0" x1="0">
      <stop id="stop390" offset="0" style="stop-opacity:1;stop-color:#ff928e" />
      <stop id="stop392" offset="1" style="stop-opacity:1;stop-color:#fe7062" />
    </linearGradient>
    <clipPath id="clipPath404" clipPathUnits="userSpaceOnUse">
      <path id="path402" d="m 25762.2,4873.6 c 259.1,-22.4 708.8,-58.7 1063.3,-74.4 213.1,-9.3 335.8,11.5 406.5,39.8 -0.2,-7.9 -0.4,-15.5 -0.7,-22.5 -1.7,-37.3 -32,-67.1 -69.7,-69.2 -669.9,-37.4 -1202.6,-13 -1392.3,-1.4 -39.2,2.4 -62.6,45 -42.5,78.4 10,16.8 22.2,33.1 35.4,49.3 z" />
    </clipPath>
    <linearGradient id="linearGradient412" spreadMethod="pad" gradientTransform="matrix(-1512.51,0,0,-1512.51,27232,4800.5)" gradientUnits="userSpaceOnUse" y2="0" x2="1" y1="0" x1="0">
      <stop id="stop408" offset="0" style="stop-opacity:1;stop-color:#4f52ff" />
      <stop id="stop410" offset="1" style="stop-opacity:1;stop-color:#4042e2" />
    </linearGradient>
    <clipPath id="clipPath422" clipPathUnits="userSpaceOnUse">
      <path id="path420" d="m 26825.5,4799.2 c -354.5,15.7 -804.2,52 -1063.3,74.4 254.7,312.6 1063.3,523.2 1063.3,523.2 h 228.4 c 157,-226.4 179.8,-441.9 178.1,-557.8 -70.7,-28.3 -193.4,-49.1 -406.5,-39.8 z" />
    </clipPath>
    <linearGradient id="linearGradient430" spreadMethod="pad" gradientTransform="matrix(-1469.89,0,0,-1469.89,27232,5096.9)" gradientUnits="userSpaceOnUse" y2="0" x2="1" y1="0" x1="0">
      <stop id="stop426" offset="0" style="stop-opacity:1;stop-color:#09005d" />
      <stop id="stop428" offset="1" style="stop-opacity:1;stop-color:#1a0f91" />
    </linearGradient>
    <clipPath id="clipPath440" clipPathUnits="userSpaceOnUse">
      <path id="path438" d="m 27092.3,5769.7 -21.4,-422.9 c -2.3,-45.8 -36.5,-84.3 -82.4,-90.9 -45.6,-6.5 -106.8,-7.3 -171.6,14.2 -39.8,13.3 -69.4,46.9 -76.8,87.9 l -73.8,411.7 z" />
    </clipPath>
    <linearGradient id="linearGradient448" spreadMethod="pad" gradientTransform="matrix(-426.04,0,0,-426.04,27092.3,5510.8)" gradientUnits="userSpaceOnUse" y2="0" x2="1" y1="0" x1="0">
      <stop id="stop444" offset="0" style="stop-opacity:1;stop-color:#febbba" />
      <stop id="stop446" offset="1" style="stop-opacity:1;stop-color:#ff928e" />
    </linearGradient>
    <clipPath id="clipPath458" clipPathUnits="userSpaceOnUse">
      <path id="path456" d="m 30058.5,4802.4 c 112.4,15.7 163.3,74.1 184.6,136.5 l 0.4,-1.7 c 16.5,-65.8 -21.8,-134.1 -98.4,-166.5 -92.6,-39.2 -193.9,-45.9 -272.5,-42.7 -84.3,3.5 -161.8,38.4 -204.3,94.3 l -0.6,0.8 c 84.6,-41.9 203.5,-46.8 390.8,-20.7 z" />
    </clipPath>
    <linearGradient id="linearGradient466" spreadMethod="pad" gradientTransform="matrix(-579.622,0,0,-579.622,30247.3,4833.1)" gradientUnits="userSpaceOnUse" y2="0" x2="1" y1="0" x1="0">
      <stop id="stop462" offset="0" style="stop-opacity:1;stop-color:#4f52ff" />
      <stop id="stop464" offset="1" style="stop-opacity:1;stop-color:#4042e2" />
    </linearGradient>
    <clipPath id="clipPath476" clipPathUnits="userSpaceOnUse">
      <path id="path474" d="m 29528.8,5772.4 h 188.3 c 286.9,5.8 467,-599.2 526,-833.5 -21.3,-62.4 -72.2,-120.8 -184.6,-136.5 -187.3,-26.1 -306.2,-21.2 -390.8,20.7 -155,203.9 -231.9,502.6 -268.8,677 -42,198.2 129.9,272.3 129.9,272.3 z" />
    </clipPath>
    <linearGradient id="linearGradient484" spreadMethod="pad" gradientTransform="matrix(-850.772,0,0,-850.772,30243.1,5279.4)" gradientUnits="userSpaceOnUse" y2="0" x2="1" y1="0" x1="0">
      <stop id="stop480" offset="0" style="stop-opacity:1;stop-color:#09005d" />
      <stop id="stop482" offset="1" style="stop-opacity:1;stop-color:#1a0f91" />
    </linearGradient>
    <clipPath id="clipPath494" clipPathUnits="userSpaceOnUse">
      <path id="path492" d="m 29692.9,6164.9 104.6,-415.9 c 12.8,-51 -11.6,-103.8 -58.8,-128 -58.5,-30 -140.8,-61.6 -216.5,-52.4 -35.6,4.3 -65.2,29.3 -77,62.9 l -153.5,437.6 z" />
    </clipPath>
    <linearGradient id="linearGradient502" spreadMethod="pad" gradientTransform="matrix(-509.167,0,0,-509.167,29800.9,5865.9)" gradientUnits="userSpaceOnUse" y2="0" x2="1" y1="0" x1="0">
      <stop id="stop498" offset="0" style="stop-opacity:1;stop-color:#febbba" />
      <stop id="stop500" offset="1" style="stop-opacity:1;stop-color:#ff928e" />
    </linearGradient>
    <clipPath id="clipPath512" clipPathUnits="userSpaceOnUse">
      <path id="path510" d="m 29817.6,6044.7 c -130.1,-115.4 -553.3,-130.7 -553.3,-130.7 -1524.5,3658.9 -2148.1,4178.7 -2148.1,4178.7 220.2,-1381 35.5,-4438.5 35.5,-4438.5 -251.5,-111 -575.9,0 -575.9,0 -20.4,2261 -367.9,4232.7 -778.4,5787.2 1030.3,23.1 1578.2,375.7 1757.2,517.2 858.8,-1384.6 2263,-5913.9 2263,-5913.9 z" />
    </clipPath>
    <linearGradient id="linearGradient520" spreadMethod="pad" gradientTransform="matrix(5636.16,-8213.93,8213.93,5636.16,25863.9,10557.2)" gradientUnits="userSpaceOnUse" y2="0" x2="1" y1="0" x1="0">
      <stop id="stop516" offset="0" style="stop-opacity:1;stop-color:#4f52ff" />
      <stop id="stop518" offset="1" style="stop-opacity:1;stop-color:#4042e2" />
    </linearGradient>
    <clipPath id="clipPath530" clipPathUnits="userSpaceOnUse">
      <path id="path528" d="m 27292.9,16166.3 c 195,-972.8 125.1,-2713.9 79.2,-3508 -12.9,-223.2 142.8,-532.5 268.8,-743.6 19.7,-33 7.8,-75.6 -26.4,-93.2 -210.3,-108.1 -923.4,-443.5 -1750.4,-486 -56.4,-2.9 -107.3,33.8 -121.9,88.3 -524.5,1958.6 -1121.5,3313.3 -1284.4,3666.7 -27,58.6 -21.2,127.5 16.4,179.9 828,1156.1 2818.7,895.9 2818.7,895.9 z" />
    </clipPath>
    <linearGradient id="linearGradient538" spreadMethod="pad" gradientTransform="matrix(2158.98,-5613.36,5613.36,2158.98,4477.06,71099.4)" gradientUnits="userSpaceOnUse" y2="0" x2="1" y1="0" x1="0">
      <stop id="stop534" offset="0" style="stop-opacity:1;stop-color:#ff928e" />
      <stop id="stop536" offset="1" style="stop-opacity:1;stop-color:#fe7062" />
    </linearGradient>
    <clipPath id="clipPath548" clipPathUnits="userSpaceOnUse">
      <path id="path546" d="m 27012.2,10179.3 c 8.7,0 17.4,2.3 25.4,7.1 23,14.1 30.3,44.1 16.3,67.1 -8.2,13.5 -205.4,332.2 -604.5,524.7 -24.2,11.7 -53.4,1.6 -65.2,-22.7 -11.7,-24.3 -1.5,-53.5 22.8,-65.2 372,-179.5 561.6,-484.5 563.5,-487.6 9.2,-15.1 25.3,-23.4 41.7,-23.4 z" />
    </clipPath>
    <linearGradient id="linearGradient556" spreadMethod="pad" gradientTransform="matrix(-1113.58,-2613.51,-2613.51,1113.58,28140.8,13815.3)" gradientUnits="userSpaceOnUse" y2="0" x2="1" y1="0" x1="0">
      <stop id="stop552" offset="0" style="stop-opacity:1;stop-color:#4f52ff" />
      <stop id="stop554" offset="1" style="stop-opacity:1;stop-color:#4042e2" />
    </linearGradient>
    <clipPath id="clipPath566" clipPathUnits="userSpaceOnUse">
      <path id="path564" d="m 28516.2,13374.5 c -62.7,-453.2 -247.8,-947.5 -618,-1472.6 l -140.8,114.8 c 0,0 162.5,659.2 70.1,1407.3 228.4,44.6 498.2,-1.4 688.7,-49.5 z" />
    </clipPath>
    <linearGradient id="linearGradient574" spreadMethod="pad" gradientTransform="matrix(1812.54,-1605.05,1605.05,1812.54,27468.1,13287.7)" gradientUnits="userSpaceOnUse" y2="0" x2="1" y1="0" x1="0">
      <stop id="stop570" offset="0" style="stop-opacity:1;stop-color:#febbba" />
      <stop id="stop572" offset="1" style="stop-opacity:1;stop-color:#ff928e" />
    </linearGradient>
    <clipPath id="clipPath584" clipPathUnits="userSpaceOnUse">
      <path id="path582" d="m 27075.1,14966 217.8,1200.3 c 0,0 1455.4,-1112.5 1223.3,-2791.8 -190.5,48.1 -460.3,94.1 -688.7,49.5 -66.5,538.9 -265.2,1124 -752.4,1542 z" />
    </clipPath>
    <linearGradient id="linearGradient592" spreadMethod="pad" gradientTransform="matrix(2158.99,-5613.38,5613.38,2158.99,5871.01,71635.6)" gradientUnits="userSpaceOnUse" y2="0" x2="1" y1="0" x1="0">
      <stop id="stop588" offset="0" style="stop-opacity:1;stop-color:#ff928e" />
      <stop id="stop590" offset="1" style="stop-opacity:1;stop-color:#fe7062" />
    </linearGradient>
    <clipPath id="clipPath602" clipPathUnits="userSpaceOnUse">
      <path id="path600" d="M 24469.7,15072.3 25813,13604.8 c 247.1,-693.4 38.4,-1151.8 -285.1,-1450.1 -173.2,285.5 -369.2,488 -522.6,619.1 232.2,741.5 -535.6,2298.5 -535.6,2298.5 z" />
    </clipPath>
    <linearGradient id="linearGradient610" spreadMethod="pad" gradientTransform="matrix(4450.86,-4044.89,4044.89,4450.86,-43351.3,75729.2)" gradientUnits="userSpaceOnUse" y2="0" x2="1" y1="0" x1="0">
      <stop id="stop606" offset="0" style="stop-opacity:1;stop-color:#ff928e" />
      <stop id="stop608" offset="1" style="stop-opacity:1;stop-color:#fe7062" />
    </linearGradient>
    <clipPath id="clipPath620" clipPathUnits="userSpaceOnUse">
      <path id="path618" d="m 25005.3,12773.8 c 153.4,-131.1 349.4,-333.6 522.6,-619.1 -811.7,-898.5 -1387.7,-582.6 -1387.7,-582.6 l -30,135.1 c -26.6,119.9 29.2,244.2 138.4,300.4 365,187.8 672,495.8 756.7,766.2 z" />
    </clipPath>
    <linearGradient id="linearGradient628" spreadMethod="pad" gradientTransform="matrix(-1341.39,-674.601,674.601,-1341.39,25389.3,12430.2)" gradientUnits="userSpaceOnUse" y2="0" x2="1" y1="0" x1="0">
      <stop id="stop624" offset="0" style="stop-opacity:1;stop-color:#febbba" />
      <stop id="stop626" offset="1" style="stop-opacity:1;stop-color:#ff928e" />
    </linearGradient>
    <clipPath id="clipPath638" clipPathUnits="userSpaceOnUse">
      <path id="path636" d="m 24932.4,16675.7 271.2,-997.1 c 30.5,-112 151.7,-172.1 259.4,-129 116.3,46.5 263.9,110 390.9,178.5 135.6,73.2 178.1,247.7 92.2,375.6 l -563.8,840.8 z" />
    </clipPath>
    <linearGradient id="linearGradient646" spreadMethod="pad" gradientTransform="matrix(15.5906,-2665.67,2665.67,15.5906,25457.8,16950.5)" gradientUnits="userSpaceOnUse" y2="0" x2="1" y1="0" x1="0">
      <stop id="stop642" offset="0" style="stop-opacity:1;stop-color:#febbba" />
      <stop id="stop644" offset="1" style="stop-opacity:1;stop-color:#ff928e" />
    </linearGradient>
    <clipPath id="clipPath656" clipPathUnits="userSpaceOnUse">
      <path id="path654" d="m 24339.1,17433.1 c -2.5,-17.1 226.2,-1137.7 226.2,-1137.7 l 637.1,144.2 -59,1094.3 c 0,0 -763,185.9 -804.3,-100.8 z" />
    </clipPath>
    <linearGradient id="linearGradient664" spreadMethod="pad" gradientTransform="matrix(1050.76,-1905.38,1905.38,1050.76,24592.8,17388.9)" gradientUnits="userSpaceOnUse" y2="0" x2="1" y1="0" x1="0">
      <stop id="stop660" offset="0" style="stop-opacity:1;stop-color:#febbba" />
      <stop id="stop662" offset="1" style="stop-opacity:1;stop-color:#ff928e" />
    </linearGradient>
    <clipPath id="clipPath674" clipPathUnits="userSpaceOnUse">
      <path id="path672" d="m 25000.1,17290 76.2,-573.6 c 1,-7.4 0.9,-14.6 -0.1,-22 -6.4,-44.9 -39.9,-198 -194.4,-154.2 -140.2,39.7 -268.8,73.8 -357.6,46.7 -39.9,-12.2 -63.9,-52.6 -55.6,-93.5 20.8,-101.8 72,-330.3 146.7,-522.1 15.1,-38.9 57.7,-59.4 97.8,-47.7 120.9,35.2 373.6,116.7 561.6,229.8 25.5,15.3 40.7,43 39.4,72.7 -6.1,144.9 -23,585.1 -8.8,708.5 13.4,115.8 155.5,185.2 217.3,210.1 20.3,8.1 36.1,24.1 44.2,44.3 28.6,71.7 68.1,237.6 -140.9,305.5 -43.8,14.2 -66.8,61.4 -51.3,104.7 31,86.2 44,217.7 -117.7,290.1 -164.3,73.7 -287,-13.9 -353.3,-85.1 -26.8,-28.8 -69.8,-33.2 -103,-12.2 -19,12 -43.3,15.9 -72.8,-2.5 -39.7,-24.7 -92.3,-7.8 -112.8,34.2 -39.3,80.8 -119.5,167.3 -280.4,139.8 -285.5,-48.9 -317.8,-365.3 -242.5,-550.7 75.3,-185.4 381.8,-114.8 535.6,-21.3 116.9,71.1 268.5,-3.4 334.5,-43.2 20.9,-12.6 34.7,-34.1 37.9,-58.3 z" />
    </clipPath>
    <linearGradient id="linearGradient682" spreadMethod="pad" gradientTransform="matrix(-1551.25,223.824,-223.824,-1551.25,25524.8,16831.3)" gradientUnits="userSpaceOnUse" y2="0" x2="1" y1="0" x1="0">
      <stop id="stop678" offset="0" style="stop-opacity:1;stop-color:#09005d" />
      <stop id="stop680" offset="1" style="stop-opacity:1;stop-color:#1a0f91" />
    </linearGradient>
    <clipPath id="clipPath692" clipPathUnits="userSpaceOnUse">
      <path id="path690" d="m 25331,16725.4 c 0,0 -117.4,328.7 3.2,409.2 120.6,80.4 299.1,38.7 259.8,-199.4 -48.9,-296.2 -263,-209.8 -263,-209.8 z" />
    </clipPath>
    <linearGradient id="linearGradient700" spreadMethod="pad" gradientTransform="matrix(-887.422,1218.96,-1218.96,-887.422,26298.5,15753.9)" gradientUnits="userSpaceOnUse" y2="0" x2="1" y1="0" x1="0">
      <stop id="stop696" offset="0" style="stop-opacity:1;stop-color:#febbba" />
      <stop id="stop698" offset="1" style="stop-opacity:1;stop-color:#ff928e" />
    </linearGradient>
    <clipPath id="clipPath710" clipPathUnits="userSpaceOnUse">
      <path id="path708" d="m 31500.1,16580.4 -8716,-6103.3 893.2,-1286.2 8795.3,6042.8 c 186.8,128.4 254.1,372 160.6,578.4 -96.1,212.1 -287.3,485.5 -667.1,763.9 -138.1,101.2 -325.7,102.6 -466,4.4 z" />
    </clipPath>
    <linearGradient id="linearGradient718" spreadMethod="pad" gradientTransform="matrix(17072.3,5701.52,-5701.52,17072.3,21730.5,10938)" gradientUnits="userSpaceOnUse" y2="0" x2="1" y1="0" x1="0">
      <stop id="stop714" offset="0" style="stop-opacity:1;stop-color:#09005d" />
      <stop id="stop716" offset="1" style="stop-opacity:1;stop-color:#1a0f91" />
    </linearGradient>
    <clipPath id="clipPath728" clipPathUnits="userSpaceOnUse">
      <path id="path726" d="m 20676.2,8170.3 941.2,1030 c 154.4,-111.7 319.2,-305.4 427.3,-641.6 l -1292,-500.3 c -68.6,-26.5 -126.1,57.6 -76.5,111.9 z" />
    </clipPath>
    <linearGradient id="linearGradient736" spreadMethod="pad" gradientTransform="matrix(-2466.87,-595.857,595.857,-2466.87,23358.9,9154.1)" gradientUnits="userSpaceOnUse" y2="0" x2="1" y1="0" x1="0">
      <stop id="stop732" offset="0" style="stop-opacity:1;stop-color:#09005d" />
      <stop id="stop734" offset="1" style="stop-opacity:1;stop-color:#1a0f91" />
    </linearGradient>
    <clipPath id="clipPath746" clipPathUnits="userSpaceOnUse">
      <path id="path744" d="m 22784.1,10477.1 c 789.2,-483.5 893.2,-1286.2 893.2,-1286.2 l -1632.6,-632.2 c -108.1,336.2 -272.9,529.9 -427.3,641.6 z" />
    </clipPath>
    <linearGradient id="linearGradient754" spreadMethod="pad" gradientTransform="matrix(10049.6,1554.84,-1554.84,10049.6,20397,9205.8)" gradientUnits="userSpaceOnUse" y2="0" x2="1" y1="0" x1="0">
      <stop id="stop750" offset="0" style="stop-opacity:1;stop-color:#febbba" />
      <stop id="stop752" offset="1" style="stop-opacity:1;stop-color:#ff928e" />
    </linearGradient>
    <clipPath id="clipPath772" clipPathUnits="userSpaceOnUse">
      <path id="path770" d="m 27815.5,12036.7 -657,53.5 -284.5,-262.3 c 0,0 67.3,-93 277.7,-39.5 210.5,53.4 498.7,66.6 498.7,66.6 0,0 290.6,-131 294.1,114.1 z" />
    </clipPath>
    <linearGradient id="linearGradient780" spreadMethod="pad" gradientTransform="matrix(1812.54,-1605.05,1605.05,1812.54,26752.4,12479.4)" gradientUnits="userSpaceOnUse" y2="0" x2="1" y1="0" x1="0">
      <stop id="stop776" offset="0" style="stop-opacity:1;stop-color:#febbba" />
      <stop id="stop778" offset="1" style="stop-opacity:1;stop-color:#ff928e" />
    </linearGradient>
    <clipPath id="clipPath790" clipPathUnits="userSpaceOnUse">
      <path id="path788" d="m 24363.7,11412.8 c -56.8,-44.4 -251.4,48.3 -370.6,112.3 -58,31.3 -86.1,99.1 -66.2,162 28.7,90.4 76.4,207.1 135.3,221.8 97.6,24.4 535.7,-313.2 301.5,-496.1 z" />
    </clipPath>
    <linearGradient id="linearGradient798" spreadMethod="pad" gradientTransform="matrix(-511.182,0,0,-511.182,24431.7,11655.6)" gradientUnits="userSpaceOnUse" y2="0" x2="1" y1="0" x1="0">
      <stop id="stop794" offset="0" style="stop-opacity:1;stop-color:#febbba" />
      <stop id="stop796" offset="1" style="stop-opacity:1;stop-color:#ff928e" />
    </linearGradient>
  </defs>
  <g transform="matrix(1.3333333,0,0,-1.3333333,0,4946.6667)" id="g10">
    <g transform="scale(0.1)" id="g12">
      <g id="g18">
        <g clip-path="url(#clipPath24)" id="g20">
          <g transform="scale(1.99693)" id="g26">
            <path id="path34" style="fill:url(#linearGradient32);fill-opacity:1;fill-rule:nonzero;stroke:none" d="m 9529.12,2443.6 c -858.72,0 -1548.18,119.83 -1905.43,186.28 -496.46,92.4 -965.08,175.02 -1408.36,284.94 l 6364.07,115.63 C 11502.9,2573.95 10424,2443.6 9529.12,2443.6 m -4101.2,712.69 c -484.14,184.33 -935.28,437.37 -1357.36,818.66 -1812.88,1637.91 -2113.52,4690.79 -1284.11,7210.35 82.99,-465 164.39,-1004.6 238.56,-1628.14 C 3290.44,7326.24 4594.1,6052.33 5353.16,5488.42 V 3423.65 c 0,-97.95 27.34,-189.44 74.76,-267.36 m 9089.18,1128.83 -48.6,953.47 c 2644.2,3115.87 606.1,7460.81 183.9,8278.01 -17.3,33.3 -50.4,50.8 -82.8,50.8 -26.7,0 -52.9,-12 -69.1,-36.8 -148.6,-228.4 -288.5,-453 -419.8,-673.5 l -54.4,1067.7 c -19.9,391.3 -343,698.4 -734.9,698.4 H 6869.54 c -275.18,32.7 -499.42,61.8 -659.27,83.5 -11.16,1.5 -22.18,2.3 -33.05,2.3 -85.58,0 -162.14,-45.2 -205.31,-114.1 -259.4,-69.4 -469.02,-260.7 -563.87,-508.6 -94.54,206.4 -197.25,396.3 -303.91,569.9 803.08,710.4 1909.93,1412.8 3263.31,1589.7 67.95,8.9 118.63,14 163.04,18.7 108.57,11.5 359.81,35.4 709.39,35.4 1034.63,0 2932.33,-209.3 4555.53,-1569.2 310.8,-260.4 811.1,-730.2 1275,-1446.7 1696.3,-2619.8 1701.7,-6677.32 -455.6,-8900.98 -32.9,-33.9 -65.4,-66.55 -97.7,-98 M 4009.56,12191.8 c -180.7,194.8 -360.54,370.6 -533.73,527.8 54.2,91.8 110.19,181.9 168.01,270.2 39.96,61.1 137.28,206.8 288.47,404.9 14.96,-382 37.52,-786.5 77.25,-1202.9" />
          </g>
        </g>
      </g>
      <g id="g36">
        <g clip-path="url(#clipPath42)" id="g38">
          <g transform="scale(1.93571)" id="g44">
            <path id="path52" style="fill:url(#linearGradient50);fill-opacity:1;fill-rule:nonzero;stroke:none" d="m 14926.2,5404.28 -87.4,1716.53 c 30.8,164.96 58.6,330.99 83.8,497.96 48.6,341.07 87,685.44 115.8,1032.49 54.2,695.05 72.6,1399.54 56.7,2109.54 -7.6,355 -23.1,711.2 -46.3,1068.3 -24.3,357.3 -54.3,715.1 -99,1074.5 -1,8.5 -8.2,15.7 -16.2,16.1 -0.2,0 -0.4,0 -0.7,0 -7.5,0 -12.8,-6.4 -11.8,-14.6 l 0.1,-0.3 c 42.8,-357.7 71.3,-715.3 93.8,-1071.7 21.6,-356.4 35.4,-711.7 41.4,-1065.8 12.5,-708.1 -9.1,-1410.4 -66.4,-2102.55 -30.3,-345.56 -70.3,-688.33 -120.4,-1027.53 -13.7,-88.5 -28.3,-176.69 -43.6,-264.61 l -299.9,5891.19 c 135.4,227.4 279.7,459.1 433,694.8 16.7,25.6 43.8,37.9 71.4,37.9 33.4,0 67.6,-18 85.3,-52.4 435.6,-843 2538.2,-5325.38 -189.6,-8539.82" />
          </g>
        </g>
      </g>
      <g id="g54">
        <g clip-path="url(#clipPath60)" id="g56">
          <g transform="scale(1.79331)" id="g62">
            <path id="path70" style="fill:url(#linearGradient68);fill-opacity:1;fill-rule:nonzero;stroke:none" d="m 16017.1,7686.22 -13.9,271.79 c 16.5,94.91 32.3,190.09 47.1,285.62 54.1,366.13 97.2,736.12 130,1109.12 61.8,747.15 85.1,1505.15 71.6,2269.55 -6.4,382.1 -21.4,765.7 -44.7,1150.4 -24.3,384.6 -55,770.6 -101.3,1156.8 v 0.3 c -1.1,8.9 4.6,15.8 12.7,15.8 0.3,0 0.6,0 0.8,-0.1 8.6,-0.4 16.4,-8.2 17.5,-17.3 48.2,-388 80.6,-774.2 106.8,-1159.8 25.1,-385.5 41.8,-770 50,-1153.1 17.1,-766.4 -2.7,-1526.9 -61.2,-2277.11 -31.1,-374.61 -72.6,-746.33 -125,-1114.47 -27.2,-180.23 -57.3,-359.45 -90.4,-537.5" />
          </g>
        </g>
      </g>
      <g transform="scale(1.96887)" id="g72">
        <path id="path74" style="fill:#91b3fa;fill-opacity:1;fill-rule:nonzero;stroke:none" d="m 3805.57,16169.9 c -23.14,71.4 60.14,130.1 120.33,85.2 611.15,-455.8 2114.43,-1857.8 2092.29,-4609.2 -27.84,-3451.99 822.65,-4613.73 1791.64,-5271.21 0,0 -1252.96,218.55 -2159.06,1392.53 -2224.74,2882.28 -1433.75,7132.68 -1845.2,8402.68" />
      </g>
      <g transform="scale(1.8336)" id="g76">
        <path id="path78" style="fill:#c0d6fc;fill-opacity:1;fill-rule:nonzero;stroke:none" d="m 5721.93,11367.4 c -60.65,116.5 -123.48,230.4 -187.83,341 -23.89,304.2 -50.88,607.3 -87.41,909.7 -47.96,412.4 -113.43,822.7 -186.59,1231.6 -74.73,408.6 -162.26,815.2 -262.07,1218.9 -97.71,404.2 -210.23,805 -330.67,1203.6 -3.3,10.9 2.58,22.7 13.5,26.6 2.38,0.8 4.79,1.2 7.17,1.2 8.91,0 17.24,-5.6 20.37,-14.4 138.37,-393.7 261.58,-792.7 374.16,-1194.9 110.65,-402.7 208.59,-809.1 294.09,-1218.3 21.19,-102.4 41.55,-204.9 61.33,-307.5 18.78,-102.8 37.82,-205.6 54.78,-308.8 35.18,-206.1 66.7,-412.9 94.46,-620.2 56.66,-414.5 96.26,-831.3 132.8,-1246.3 0.65,-7.4 1.31,-14.8 1.91,-22.2" />
      </g>
      <g transform="scale(1.66777)" id="g80">
        <path id="path82" style="fill:#bdd0fb;fill-opacity:1;fill-rule:nonzero;stroke:none" d="m 7130.84,6469.18 c -28.3,-160.87 -211.66,-240.5 -349.69,-153.2 -761.55,481.72 -2791.58,2038.41 -3159.1,5127.42 -310.34,2608.5 -726.52,3993.5 -959.01,4609.1 -49.16,130.3 96.44,247.5 213.3,172 1289.37,-833.5 5280.96,-3927.3 4254.5,-9755.32" />
      </g>
      <g transform="scale(1.38475)" id="g84">
        <path id="path86" style="fill:#dce6fd;fill-opacity:1;fill-rule:nonzero;stroke:none" d="m 7719.71,8597.26 c -785.08,1417.04 -2291.67,4441.34 -2815.19,7613.44 -6.88,41.8 21.43,81.3 63.28,88.3 4.23,0.6 8.43,1 12.58,1 36.92,0 69.47,-26.7 75.71,-64.3 491.54,-2978.5 1857.16,-5827.6 2663.62,-7318.74 v -319.7" />
      </g>
      <g id="g88">
        <g clip-path="url(#clipPath94)" id="g90">
          <g transform="scale(1.79151)" id="g96">
            <path id="path104" style="fill:url(#linearGradient102);fill-opacity:1;fill-rule:nonzero;stroke:none" d="m 6540.91,3242.07 c -207.53,0 -389.78,110.47 -490.59,276.14 -52.86,86.85 -83.34,188.83 -83.34,298.01 v 2301.53 527.54 247.11 4521.7 3954.9 c 0,117.1 21.66,229.2 61.18,332.5 105.72,276.4 339.38,489.5 628.52,566.9 -26.18,-41.8 -41.36,-91.5 -41.03,-145.1 l 71.23,-12110.59 c 0.67,-116.22 88.41,-213.51 204.01,-225.62 463.52,-48.57 1130.67,-67.6 1893.88,-67.6 2363.73,0 5645.23,183.14 6622.43,240.97 158.1,9.32 278.8,144.52 270.4,302.65 l -612.8,11529.99 c -7.1,133.8 -118,236.6 -249.7,236.6 -6.5,0 -13.1,-0.3 -19.6,-0.8 -615,-47.2 -1255.6,-66.8 -1895.9,-66.8 -2032.6,0 -4060.29,197.7 -5242.37,337.9 h 7158.17 c 436.9,0 797,-342.3 819.2,-778.5 l 60.7,-1190.1 324,-6365.38 13.9,-272.06 94.4,-1854.69 54.1,-1062.79 37.4,-733.85 c 17.4,-341.34 -251.4,-629.31 -593.1,-635.5 l -1604.2,-29.2 -7093.79,-128.88 -376.44,-6.87 c -3.52,-0.05 -7.09,-0.11 -10.66,-0.11" />
          </g>
        </g>
      </g>
      <path id="path106" style="fill:#ffffff;fill-opacity:1;fill-rule:nonzero;stroke:none" d="m 14113.2,6158 h -0.5 l -1819,23.5 c -608.3,7.9 -1103.1,509.2 -1103.1,1117.5 v 2746.4 c 0,21.5 17.3,38.8 38.8,38.8 21.4,0 38.8,-17.3 38.8,-38.8 V 7299 c 0,-566 460.5,-1032.4 1026.5,-1039.8 l 1819,-23.5 c 21.4,-0.3 38.6,-17.9 38.3,-39.3 -0.3,-21.3 -17.6,-38.4 -38.8,-38.4" />
      <path id="path108" style="fill:#ffffff;fill-opacity:1;fill-rule:nonzero;stroke:none" d="m 11229.4,10857.3 c -21.5,0 -38.8,17.3 -38.8,38.8 v 444.8 c 0,21.5 17.3,38.8 38.8,38.8 21.4,0 38.8,-17.3 38.8,-38.8 v -444.8 c 0,-21.5 -17.4,-38.8 -38.8,-38.8" />
      <g transform="scale(1.80417)" id="g110">
        <path id="path112" style="fill:#91b3fa;fill-opacity:1;fill-rule:nonzero;stroke:none" d="m 6569.24,16010.2 c -1,163.4 142.67,289.8 304.57,267.8 1073.63,-145.5 4765.49,-595.8 7817.89,-361.5 139.2,10.7 260,-94.8 267.4,-234.2 l 608.5,-11449.1 c 8.4,-157.02 -111.5,-291.27 -268.5,-300.52 -1283.8,-75.99 -6570.74,-369.7 -8456.55,-172.16 -114.79,12.03 -201.92,108.64 -202.58,224.04 l -70.73,12025.64" />
      </g>
      <g transform="scale(1.76913)" id="g114">
        <path id="path116" style="fill:#d3e1fd;fill-opacity:1;fill-rule:nonzero;stroke:none" d="m 8942.2,3946.92 c -743.81,0 -1393.96,18.59 -1845.65,65.9 -112.65,11.82 -198.12,106.61 -198.8,219.89 l -69.47,11801.99 c -0.85,148.1 119.44,265.3 263.01,265.3 11.82,0 23.86,-0.8 35.95,-2.4 842.85,-114.3 3330.16,-420 5824.86,-420 624,0 1248.3,19.1 1847.6,65.1 6.4,0.5 12.8,0.8 19.1,0.8 128.4,0 236.4,-100.2 243.4,-230.6 l 597.2,-11236.23 c 8.2,-154.03 -109.5,-285.79 -263.5,-294.89 -952.4,-56.36 -4150.2,-234.86 -6453.7,-234.86" />
      </g>
      <g transform="scale(1.6144)" id="g118">
        <path id="path120" style="fill:#91b3fa;fill-opacity:1;fill-rule:nonzero;stroke:none" d="m 7616.27,8886.22 c 25.96,-68.82 115.4,-116.51 217.24,-115.9 l 8297.59,49.44 c 93.8,0.55 168.9,54.63 166.9,120.16 -2,63.74 -76.4,114.78 -167.6,115.09 l -8297.82,26.45 c -146.44,0.44 -253.66,-96.32 -216.31,-195.24" />
      </g>
      <g transform="scale(1.6144)" id="g122">
        <path id="path124" style="fill:#91b3fa;fill-opacity:1;fill-rule:nonzero;stroke:none" d="m 7616.27,7543.37 c 25.96,-68.76 115.4,-116.52 217.24,-115.9 l 8297.59,49.43 c 93.8,0.56 168.9,54.63 166.9,120.17 -2,63.8 -76.4,114.78 -167.6,115.09 l -8297.82,26.45 c -146.44,0.43 -253.66,-96.32 -216.31,-195.24" />
      </g>
      <g transform="scale(1.18098)" id="g126">
        <path id="path128" style="fill:#91b3fa;fill-opacity:1;fill-rule:nonzero;stroke:none" d="m 10406.3,8476.09 v 0 c 17.6,-93.99 78.3,-159.28 147.4,-158.43 l 5631.7,67.57 c 63.6,0.76 114.6,74.68 113.2,164.35 -1.4,87.13 -51.8,156.91 -113.8,157.25 l -5631.7,36.15 c -99.4,0.68 -172.2,-131.58 -146.8,-266.89" />
      </g>
      <g transform="scale(1.57656)" id="g130">
        <path id="path132" style="fill:#91b3fa;fill-opacity:1;fill-rule:nonzero;stroke:none" d="m 8703.39,14586.6 c 22.71,-70.4 100.91,-119.3 189.97,-118.7 l 7258.84,50.6 c 82.1,0.6 147.8,56 146,123.1 -1.8,65.3 -66.8,117.6 -146.6,117.8 l -7259,27.1 c -128.13,0.5 -221.94,-98.6 -189.21,-199.9" />
      </g>
      <g transform="scale(1.29722)" id="g134">
        <path id="path136" style="fill:#91b3fa;fill-opacity:1;fill-rule:nonzero;stroke:none" d="m 10573.5,16056.4 c 13.4,-85.6 60,-144.9 113,-144.2 l 4317.4,61.5 c 48.8,0.7 87.9,68 86.8,149.6 -1,79.3 -39.7,142.9 -87.2,143.2 l -4317.5,32.9 c -76.2,0.6 -132,-119.8 -112.5,-243" />
      </g>
      <g transform="scale(1.57656)" id="g138">
        <path id="path140" style="fill:#91b3fa;fill-opacity:1;fill-rule:nonzero;stroke:none" d="m 8703.39,11836.4 c 22.71,-70.4 100.91,-119.2 189.97,-118.6 l 7258.84,50.6 c 82.1,0.6 147.8,56 146,123.1 -1.8,65.2 -66.8,117.5 -146.6,117.8 l -7259,27.1 c -128.13,0.5 -221.94,-98.6 -189.21,-200" />
      </g>
      <g transform="scale(1.21936)" id="g142">
        <path id="path144" style="fill:#91b3fa;fill-opacity:1;fill-rule:nonzero;stroke:none" d="m 11248.9,13526 v 0 c 15.1,-91.1 67.1,-154.3 126.3,-153.4 l 4826.5,65.4 c 54.6,0.7 98.3,72.3 97.1,159.1 -1.2,84.4 -44.4,152 -97.5,152.4 l -4826.6,35 c -85.2,0.6 -147.5,-127.5 -125.8,-258.5" />
      </g>
      <g id="g218">
        <g clip-path="url(#clipPath224)" id="g220">
          <g transform="scale(1.98264)" id="g226">
            <path id="path234" style="fill:url(#linearGradient232);fill-opacity:1;fill-rule:nonzero;stroke:none" d="m 9896.86,15542.2 c -111.77,0 -202.4,90.6 -202.4,202.4 0,111.8 90.63,202.4 202.4,202.4 111.84,0 202.44,-90.6 202.44,-202.4 0,-111.8 -90.6,-202.4 -202.44,-202.4 z m 357.04,600.7 c -258.48,179.7 -483.18,176.2 -641.35,129.5 -144.31,-42.6 -237.82,-181.9 -224.1,-331.7 l 68.25,-744.6 811.7,-72 c 0,0 492.3,666.2 -14.5,1018.8" />
          </g>
        </g>
      </g>
      <g transform="scale(1.97026)" id="g236">
        <path id="path238" style="fill:#91b3fa;fill-opacity:1;fill-rule:nonzero;stroke:none" d="m 9576.26,15840.6 c -10.05,0 -18.67,7.7 -19.59,18 l -8.32,90.5 c -13.15,143.7 77.25,277.4 214.89,318 97.5,28.8 197.95,32.9 298.56,12.3 10.6,-2.2 17.5,-12.6 15.3,-23.3 -2.2,-10.7 -12.5,-17.5 -23.2,-15.3 -94.29,19.2 -188.28,15.4 -279.54,-11.5 -119.63,-35.3 -198.2,-151.6 -186.73,-276.6 l 8.28,-90.6 c 1.01,-10.8 -6.96,-20.4 -17.82,-21.4 -0.61,0 -1.22,-0.1 -1.83,-0.1 z m 21.42,-233.8 c -10.05,0 -18.63,7.7 -19.59,17.9 l -10.91,119.3 c -1.02,10.9 6.95,20.5 17.81,21.5 11.07,1 20.46,-7 21.42,-17.9 l 10.91,-119.3 c 1.02,-10.8 -6.95,-20.4 -17.81,-21.4 -0.61,-0.1 -1.22,-0.1 -1.83,-0.1" />
      </g>
      <g id="g240">
        <g clip-path="url(#clipPath246)" id="g242">
          <g transform="scale(1.86319)" id="g248">
            <path id="path256" style="fill:url(#linearGradient254);fill-opacity:1;fill-rule:nonzero;stroke:none" d="m 8884.06,15658.3 v 398.4 c 0,137.5 113.95,247.6 251.4,242.9 l 2746.44,-94.1 c 121.8,-4.2 220.6,-100.4 227.9,-222.1 l 22.9,-382.8 -3248.64,57.7" />
          </g>
        </g>
      </g>
      <g transform="scale(1.85075)" id="g258">
        <path id="path260" style="fill:#91b3fa;fill-opacity:1;fill-rule:nonzero;stroke:none" d="m 9974.69,16258 h -118.92 c -11.56,0 -20.96,9.4 -20.96,21 0,11.6 9.4,21 20.96,21 h 118.92 c 11.62,0 20.97,-9.4 20.97,-21 0,-11.6 -9.35,-21 -20.97,-21" />
      </g>
      <g transform="scale(1.85075)" id="g262">
        <path id="path264" style="fill:#91b3fa;fill-opacity:1;fill-rule:nonzero;stroke:none" d="m 9093.38,15889.5 c -11.57,0 -20.97,9.4 -20.97,21 v 162.2 c 0,125.3 101.96,227.3 227.32,227.3 h 437.17 c 11.56,0 20.96,-9.4 20.96,-21 0,-11.6 -9.4,-21 -20.96,-21 h -437.17 c -102.18,0 -185.33,-83.1 -185.33,-185.3 v -162.2 c 0,-11.6 -9.4,-21 -21.02,-21" />
      </g>
      <g transform="scale(1.80652)" id="g266">
        <path id="path268" style="fill:#7d97f4;fill-opacity:1;fill-rule:nonzero;stroke:none" d="m 8008.59,16045.8 c 6.81,142.2 124.16,254.1 266.59,254.1 l 4953.22,0.1 c 178.1,0 330.4,-128.2 360.8,-303.7 l 4.2,-24.2 c 33.3,-192.2 -114.7,-368 -309.8,-368 H 8201.83 c -116.74,0 -209.79,97.6 -204.2,214.2 l 10.96,227.5" />
      </g>
      <g id="g270">
        <g clip-path="url(#clipPath276)" id="g272">
          <g transform="scale(1.55288)" id="g278">
            <path id="path286" style="fill:url(#linearGradient284);fill-opacity:1;fill-rule:nonzero;stroke:none" d="m 12092,5504.99 c 30.8,393.71 164.3,779.7 373.9,1118.24 105.3,169.1 229.1,327.52 370.9,468.68 36.3,34.32 71.8,69.74 109,103.16 38.3,32.26 75.7,65.62 114.9,96.85 40.1,30.07 79.8,60.85 120.9,89.45 l 62.9,41.4 31.4,20.74 15.7,10.37 c 5.7,3.54 13.4,8.05 20.2,11.72 110.4,60.92 268.9,63.75 375.9,-43.79 26.1,-25.76 44.2,-56.87 57.8,-87.32 6.1,-15.33 12.1,-30.85 15.7,-45.98 4.6,-15.39 7.1,-30.27 9.6,-45.21 9.5,-59.63 6.8,-115.01 1.3,-168.59 -2.9,-26.72 -7.3,-53 -11.9,-78.56 l -14.3,-72.19 c -9.3,-48.23 -20,-96.08 -30.6,-144.05 -21.1,-95.83 -45.1,-191.01 -70.3,-285.86 -102.5,-378.91 -238.1,-748.87 -405.9,-1103.56 l -64.3,-132.4 c -22.5,-43.53 -44.5,-87.45 -67.4,-130.79 l -34.8,-64.78 -17.4,-32.39 -19.2,-33.81 c -26.5,-45.01 -56.1,-88.68 -90.7,-130.21 -34.7,-41.34 -73.9,-81.14 -122.8,-114.63 -48.4,-33.03 -109.5,-59.88 -177.2,-63.17 -16.9,-1.74 -33.6,0.07 -50.3,1.87 -17,0.9 -32.6,6.38 -48.7,10.17 -32,8.7 -62.4,24.22 -89,43.08 -53.7,38.06 -92.3,90.74 -116.2,147.6 -23,56.09 -33.2,114.69 -33.6,171.55 -0.7,56.93 7.8,111.15 19.6,162.28 11.9,51.33 26.7,99.3 43,146.25 l 24.2,70.9 27.1,69.67 c 72.8,185.79 169.2,361.52 281.7,525.48 112.2,164.34 244.7,314.25 390.5,449.03 l 27.2,25.37 28.4,24.15 56.9,48.04 c 19.4,15.59 39.3,30.46 58.8,45.66 19.8,15.07 39.1,30.65 59.7,44.5 40.7,28.46 81,57.44 123.5,83.2 l 31.5,19.83 15.7,9.92 c 2.8,1.74 4.8,3.16 8.2,5.15 l 10.4,5.8 c 28,14.68 58.6,24.53 90.3,27.88 62.9,7.41 130.9,-11.34 179.8,-56.03 25.3,-22.21 45.5,-54.09 54.7,-86.86 9.7,-32.91 9.3,-64.53 6.5,-93.06 -3,-28.65 -9.1,-54.86 -15.7,-79.53 l -19.7,-70.58 -39.3,-139.86 c -51.9,-186.56 -106,-372.6 -158.9,-558.96 l -0.1,-0.39 -81.8,14.62 c 6.1,62.65 23,126.02 57.5,182.88 17.7,28.21 39.2,54.35 66.2,76.05 27.1,22.16 58.5,37.61 91.6,47.4 33.2,9.34 68.8,12.69 104.4,6.83 17.7,-2.9 35.4,-7.86 52.2,-15.72 8.5,-3.54 16.4,-8.43 24.3,-13.13 l 16.5,-10.37 c 40,-22.54 90,-26.73 131,-8.63 10.5,4.12 20,10.04 29,16.55 4.3,3.6 8.9,6.82 12.7,10.95 l 6.2,6.05 7.4,7.92 59.7,63.62 119.2,127.12 119.2,127.12 59.5,63.56 c 14.7,15.46 35.7,29.04 59.1,33.68 23.3,4.96 47.6,1.67 68.2,-7.73 20.7,-9.34 38.6,-24.66 50.7,-44.62 12.3,-19.9 17.6,-44.95 14.8,-67.81 -0.3,-5.93 -1.6,-11.34 -3.1,-16.68 -1.4,-5.15 -3.2,-11.79 -4.3,-14.23 l -7,-20.03 -13.6,-40.38 c -17.5,-54.03 -32.3,-108.96 -44.7,-164.34 -12.2,-55.44 -21.9,-111.47 -28.9,-167.81 -0.8,-6.96 -1.9,-14.37 -2.4,-20.87 l -0.5,-17.19 c -0.8,-5.86 0.3,-11.4 1.1,-16.94 1.1,-5.47 0.5,-11.33 2.6,-16.55 4.8,-21.96 16.4,-41.53 30.7,-58.66 14.3,-17.46 34.2,-30.21 55,-39.03 10.4,-5.09 21.6,-7.02 32.6,-9.85 11.3,-0.97 22.5,-2.71 33.7,-1.29 22.2,1.74 44.3,7.54 63.2,20.16 l 7.4,4.18 6.7,5.48 13.4,11.01 30.8,30.14 c 82,80.49 160.5,164.66 234.8,252.24 148.7,175.28 281.8,363.84 397,562.75 l 42.2,75.16 20.4,37.93 10.2,18.99 2.5,4.77 v 0.32 -0.96 c -0.2,-3.22 1.3,-3.81 0.9,-3.55 0,0 0.6,-0.38 1.9,-0.26 1.2,0.26 3,0.59 3,0.84 h -0.2 l -3.7,-3.73 -7.3,-7.41 c -5,-4.96 -9.8,-9.98 -14.5,-15.13 -9.6,-10.05 -18.8,-20.54 -28,-31.04 -36.4,-42.31 -69.6,-87.52 -98.8,-135.1 -14.5,-23.83 -28.2,-48.24 -41,-73.09 -6.2,-12.5 -12.4,-25.05 -18.2,-37.74 l -8.6,-19.12 -4.2,-9.6 -2.7,-8.63 c -16.6,-45.01 -16.8,-94.66 3.7,-137.29 20.1,-42.44 56.7,-78.5 101.2,-94.67 21.8,-9.66 45.6,-11.59 68.7,-12.23 23.2,2.25 46.7,5.92 68.3,17 l 16.4,7.53 18.4,10.7 c 12.3,7.27 24.8,14.16 36.9,21.76 24.4,14.75 48.4,30.07 72.2,45.72 190.3,125.64 360.7,281.35 502.4,459.79 l 0.1,0.07 c 14.2,18.03 40.5,21.05 58.6,6.76 18,-14.36 20.9,-40.57 6.7,-58.6 -147.4,-185.53 -324.3,-347.17 -521.8,-477.63 -24.8,-16.23 -49.7,-32.14 -75.1,-47.4 -12.5,-7.92 -25.4,-15.06 -38.2,-22.6 l -19.2,-11.14 -23.1,-10.88 c -30.5,-15.2 -65.3,-21.83 -99.7,-24.41 -34.5,0.26 -69.8,4.25 -101.6,17.84 -64.9,24.15 -117.4,75.02 -146.9,137.42 -30.2,62.46 -30,138.19 -6.1,201.43 l 4.1,12.04 4.5,10.37 9.3,20.61 c 6.2,13.71 12.9,27.24 19.7,40.7 13.7,26.85 28.4,53.19 44.2,78.88 31.5,51.46 67.3,100.27 106.6,145.99 10,11.4 20,22.73 30.4,33.61 5.1,5.54 10.3,11.02 15.7,16.36 l 7.9,8.11 4,4 c 2.6,2.31 5.4,4.76 8.2,7.02 11.5,8.75 27,15.58 43,16.09 15.8,0.84 30.9,-3.15 43.7,-10.23 25,-13.66 43.8,-43.02 41.3,-75.48 -0.8,-7.53 -2.3,-15.58 -5,-22.02 -1.3,-3.28 -2.9,-6.95 -4.2,-9.72 l -2.6,-4.83 -10.4,-19.45 -20.9,-38.77 -43.1,-76.82 c -117.7,-203.24 -253.7,-395.91 -405.6,-575 -76,-89.51 -156.2,-175.48 -240,-257.78 l -31.5,-30.78 -20.1,-16.74 -10.3,-8.24 -11.4,-6.76 c -29.9,-19.39 -65.7,-29.56 -101,-32.14 -17.9,-1.8 -35.5,0.26 -53.1,2.26 -17.2,3.92 -34.7,7.59 -50.7,15.06 -32.4,13.66 -62.6,33.68 -85.7,60.99 -22.9,26.92 -41.2,58.98 -49.1,94.08 -2.9,8.57 -3,17.58 -4.5,26.34 -1.1,8.82 -2.3,17.64 -1.6,26.47 l 0.9,26.27 2.6,22.41 c 7.4,58.99 17.5,117.52 30.3,175.54 13,57.96 28.4,115.4 46.8,171.88 l 14.1,42.24 7.5,21 c 1.6,4.31 1.3,4.83 1.9,6.69 0.6,1.61 1.1,3.22 0.9,4.64 0.7,5.92 -0.3,10.82 -3.2,15.77 -2.9,4.9 -8.1,9.41 -13.8,11.92 -12.4,4.89 -21.5,3.16 -32,-7.02 l -59.6,-63.56 -119.2,-127.18 -119.2,-127.12 -59.6,-63.56 -7.5,-7.92 -9.3,-9.21 c -6.2,-6.44 -13.3,-11.85 -20.4,-17.38 -14.3,-10.63 -29.8,-19.97 -46.3,-26.73 -66.1,-28.79 -143.8,-21.7 -204.7,12.81 l -20.4,12.75 c -4.6,2.58 -9,5.54 -14,7.47 -9.6,4.58 -20.1,7.47 -31,9.28 -21.8,3.73 -45.5,1.67 -68.1,-4.64 -45.8,-12.94 -83.4,-44.11 -109.6,-87.06 -26.1,-42.63 -40.6,-94.28 -45.6,-146.89 l -81.8,14.55 0.1,0.45 c 46.9,187.98 92.6,376.21 140.5,563.86 l 35.6,140.83 17.6,69.81 c 5.2,22.22 9.4,43.53 10.8,63.11 1.5,19.51 0.6,37.34 -4.1,50.87 -4.7,13.59 -11.6,23.96 -22.8,33.62 -23.6,20.28 -57.3,29.23 -90.3,24.4 -16.4,-2.13 -32.7,-7.98 -47.2,-16.16 l -5.4,-3.22 -7.1,-4.64 -14.7,-9.85 -29.4,-19.71 c -39.8,-25.43 -77.4,-54.15 -115.4,-82.17 -19.2,-13.58 -37.2,-28.98 -55.6,-43.79 -18.2,-14.94 -36.8,-29.55 -54.7,-44.82 l -52.9,-47.07 -26.5,-23.5 -25.4,-24.54 c -136.4,-130.27 -259.8,-274.46 -363.5,-431.9 -104.1,-156.94 -192.5,-324.43 -258.3,-500.56 l -24.5,-66.01 -21.6,-67.03 c -14.8,-44.69 -27.7,-89.64 -37,-132.85 -19.1,-86.49 -19.8,-169.49 9.6,-237.11 14.1,-32.07 36.1,-59.69 62,-77.15 13,-8.75 26.5,-15.64 41.4,-18.93 15.1,-3.86 29.7,-6.18 44.5,-4.7 29.3,1.67 60.7,13.91 91.9,35.42 31,21.51 60.7,51.19 87.7,84.23 27.1,33.16 51.9,70 74.2,108.64 l 16.4,29.49 16.7,31.68 33.4,63.43 c 22.1,42.44 43,85.39 64.6,128.02 l 61.6,129.44 c 159.8,347.29 291.4,707.59 390.2,1076.77 24.2,92.41 47.3,185.08 67.6,278.45 10.2,46.69 20.5,93.31 29.3,140.25 l 13.8,70.26 c 3.9,22.09 7.5,43.66 9.7,65.11 4.4,42.56 5.6,84.87 -0.5,121 -6,36.32 -17.8,65.43 -34.6,81.72 -7.7,9.27 -18.4,15.07 -30.3,21.25 -13.3,4.83 -26.8,9.98 -41.8,10.62 -29.3,2.58 -61.8,-4.31 -90.8,-19.83 -3.8,-2.06 -6.6,-3.67 -11.2,-6.51 l -14.7,-9.53 -29.3,-19.06 -58.8,-38.06 c -38.5,-26.2 -75.2,-55.25 -113.4,-82.23 -37,-28.33 -72.5,-58.86 -109,-88.16 -35.4,-30.52 -69.1,-62.98 -103.9,-94.34 -134.6,-130.21 -256.5,-274.33 -361.3,-430.68 -210.4,-312.07 -355.3,-669.98 -419.4,-1045.67 -3.9,-22.73 -25.4,-38.06 -48.1,-34.26 -21.4,3.67 -36.2,23.19 -34.6,44.44" />
          </g>
        </g>
      </g>
      <g id="g288">
        <g clip-path="url(#clipPath294)" id="g290">
          <g transform="scale(1.28748)" id="g296">
            <path id="path304" style="fill:url(#linearGradient302);fill-opacity:1;fill-rule:nonzero;stroke:none" d="m 6747.13,15753.1 c 116.26,156.4 464.04,163.7 738.23,368 20.36,15.2 42.36,28.2 65.34,39 490.33,231.3 986.64,154.2 1351.93,-74.3 1.17,-0.7 2.25,-1.6 3.34,-2.4 272.78,-221.3 606.61,103.6 1078.93,-187.7 10.4,-6.4 19.5,-14 12.66,-24.2 -275.5,-413.2 -674.5,-872.3 -1386.58,-1241.4 -10.56,-5.5 -23.3,-5.2 -33.56,0.9 l -1820.16,1071.4 c -17.82,10.5 -22.46,34.1 -10.13,50.7" />
          </g>
        </g>
      </g>
      <g id="g306">
        <g clip-path="url(#clipPath312)" id="g308">
          <g transform="scale(1.12275)" id="g314">
            <path id="path322" style="fill:url(#linearGradient320);fill-opacity:1;fill-rule:nonzero;stroke:none" d="M 8729.51,16295.1 C 6268.89,14947.5 4335.89,10136.8 4707.35,6167.87 4356.4,3930.6 17578.8,2795.89 15224,9044.72 14042.8,11672.1 12820.4,14895.4 10378.9,16300 l -1649.39,-4.9" />
          </g>
        </g>
      </g>
      <g id="g324">
        <g clip-path="url(#clipPath330)" id="g326">
          <g transform="scale(1.25945)" id="g332">
            <path id="path340" style="fill:url(#linearGradient338);fill-opacity:1;fill-rule:nonzero;stroke:none" d="m 7696.56,14570.2 c -258.09,544 -480.24,976.6 -809.6,1482.1 -3.59,6.3 2.47,13.7 9.46,11.5 334.88,-103.5 682.21,-41.6 1226.98,112.3 0.72,0.2 1.51,0.5 2.14,0.9 308.08,198.5 660.14,131.1 1026.96,-25.6 l 1.59,-0.4 c 396.05,-79 530.79,-146.8 1058.51,87.3 7.1,3.2 14.1,-4.7 10,-11.3 -400.28,-496.5 -729.55,-1035.3 -991.09,-1614.7 -1.59,-2.2 -1.27,-4.9 -0.8,-7.6 47.72,-282.9 -1500.58,-343.8 -1534.15,-34.5" />
          </g>
        </g>
      </g>
      <g id="g342">
        <g clip-path="url(#clipPath348)" id="g344">
          <path id="path356" style="fill:url(#linearGradient354);fill-opacity:1;fill-rule:nonzero;stroke:none" d="m 10329.5,8000.4 -18.4,528.2 c -551.41,2.9 -1100.58,114 -1493.31,269.9 -140.23,55.6 -216.04,208.2 -181.42,355.1 l 117.1,496.6 c 42.95,182.2 236,282.4 411.07,216.1 389.32,-147.5 867.56,-258.3 1378.46,-240.6 530.3,18.5 919.6,212 906.8,580.6 -11.5,332.6 -324,519.7 -1068,691.8 -1061.78,251.1 -1832.85,683.4 -1865.04,1609.3 -29.06,836 560.07,1495.5 1614.84,1703.1 l -18.3,528.3 c -6,170 127.1,312.6 297,318.5 l 310.4,10.8 c 169.9,5.9 312.5,-127.1 318.5,-297.1 l 16.4,-474.3 c 510.3,-2.7 884.2,-76.9 1182.1,-170.1 152.7,-47.8 240.7,-207.4 204.3,-363.1 l -107.6,-459.3 c -41.5,-177.1 -225.7,-279.8 -398,-221.4 -274.5,93.1 -661.4,186.5 -1159.5,169.2 -629.2,-21.9 -799.92,-288.8 -791.8,-522.6 10,-287.6 394.4,-472.2 1221.2,-695.6 1180.8,-309.9 1683.1,-778.4 1713.4,-1650.4 27.8,-800.1 -540.5,-1539.9 -1684.9,-1759.7 l 20.6,-591.1 c 5.9,-170 -127.1,-312.6 -297.1,-318.5 l -310.4,-10.8 c -170,-5.9 -312.5,127.1 -318.4,297.1" />
        </g>
      </g>
      <g transform="scale(1.1333)" id="g358">
        <path id="path360" style="fill:#7d97f4;fill-opacity:1;fill-rule:nonzero;stroke:none" d="m 9340.68,15788.4 c -212.39,0 -594.05,19.7 -819.08,148 -170.69,97.3 -176.17,219.5 -164.25,283.7 8.83,47.5 59.85,79.7 113.95,72 54.09,-7.8 90.79,-52.5 81.96,-100.1 -3.31,-17.8 -11.06,-59.5 76.4,-109.4 142.1,-81 440.92,-126.6 780.02,-119.1 330.36,7.4 635.22,64.9 776.72,146.5 50.7,29.3 73.9,56.7 69.1,81.6 -9.1,47.4 27.4,92.4 81.4,100.4 54,8 105.3,-23.9 114.3,-71.4 10.8,-56 4.9,-163.5 -155.9,-256.3 -175.4,-101.3 -504.61,-166.7 -880.59,-175.1 -21.26,-0.4 -46.23,-0.8 -74.03,-0.8" />
      </g>
      <g id="g362">
        <g clip-path="url(#clipPath368)" id="g364">
          <g transform="scale(1.98264)" id="g370">
            <path id="path378" style="fill:url(#linearGradient376);fill-opacity:1;fill-rule:nonzero;stroke:none" d="m 15846.2,9953.2 c -54,-165.89 -48.9,-305.9 32.3,-331.42 82.8,-26.08 157.7,78.88 213.5,256.57 51.7,164.15 58.9,302.75 -28.9,330.35 -82.8,26.1 -165.2,-91.3 -216.9,-255.5 z m 404.1,-109.8 c -96.1,-305.85 -276.5,-422.11 -425.6,-375.26 -149.1,46.86 -223.8,243.36 -134.6,526.73 86.3,274.33 261.8,421.83 425.8,370.23 170.6,-53.6 217.2,-258.6 134.4,-521.7 z m -955.2,950.4 c -54.7,-168.2 -48.8,-306 32.3,-331.5 81.2,-25.5 157.7,79 213.5,256.6 51,162 58.9,302.8 -28.9,330.4 -82.9,26 -165.3,-91.4 -216.9,-255.5 z m -211.3,-1100.1 1099.8,1314.9 115.9,-36.5 -1099.7,-1314.82 z m 615.4,990.3 c -96.9,-308.1 -278.2,-421.7 -425.6,-375.3 -150.7,47.4 -223.8,243.4 -137,525 87,276.6 261.8,421.8 427.5,369.8 170.6,-53.7 217.9,-256.4 135.1,-519.5" />
          </g>
        </g>
      </g>
      <g id="g380">
        <g clip-path="url(#clipPath386)" id="g382">
          <g transform="scale(1.81033)" id="g388">
            <path id="path396" style="fill:url(#linearGradient394);fill-opacity:1;fill-rule:nonzero;stroke:none" d="m 15943.4,11286.9 h -200.9 v 163.7 h 200.9 v 294.9 h 155.8 v -294.9 h 200.8 v -163.7 h -200.8 v -291 h -155.8 v 291" />
          </g>
        </g>
      </g>
      <g id="g398">
        <g clip-path="url(#clipPath404)" id="g400">
          <g transform="scale(1.67067)" id="g406">
            <path id="path414" style="fill:url(#linearGradient412);fill-opacity:1;fill-rule:nonzero;stroke:none" d="m 15420.2,2917.15 c 155.1,-13.41 424.3,-35.14 636.5,-44.54 127.5,-5.56 201,6.89 243.3,23.82 -0.1,-4.72 -0.2,-9.27 -0.4,-13.46 -1,-22.33 -19.2,-40.17 -41.7,-41.42 -401,-22.39 -719.9,-7.78 -833.4,-0.84 -23.5,1.44 -37.5,26.94 -25.5,46.93 6,10.05 13.3,19.81 21.2,29.51" />
          </g>
        </g>
      </g>
      <g id="g416">
        <g clip-path="url(#clipPath422)" id="g418">
          <g transform="scale(1.67074)" id="g424">
            <path id="path432" style="fill:url(#linearGradient430);fill-opacity:1;fill-rule:nonzero;stroke:none" d="m 16056.1,2872.51 c -212.2,9.39 -481.3,31.12 -636.4,44.53 152.4,187.1 636.4,313.15 636.4,313.15 h 136.7 c 94,-135.5 107.6,-264.49 106.6,-333.86 -42.3,-16.94 -115.8,-29.39 -243.3,-23.82" />
          </g>
        </g>
      </g>
      <g id="g434">
        <g clip-path="url(#clipPath440)" id="g436">
          <g transform="scale(1.6621)" id="g442">
            <path id="path450" style="fill:url(#linearGradient448);fill-opacity:1;fill-rule:nonzero;stroke:none" d="m 16300,3471.32 -12.9,-254.43 c -1.4,-27.56 -21.9,-50.72 -49.6,-54.69 -27.4,-3.92 -64.2,-4.39 -103.2,8.54 -23.9,8 -41.7,28.22 -46.2,52.88 l -44.4,247.7 h 256.3" />
          </g>
        </g>
      </g>
      <g id="g452">
        <g clip-path="url(#clipPath458)" id="g454">
          <g transform="scale(1.85571)" id="g460">
            <path id="path468" style="fill:url(#linearGradient466);fill-opacity:1;fill-rule:nonzero;stroke:none" d="m 16197.9,2587.91 c 60.6,8.46 88,39.93 99.5,73.56 l 0.2,-0.92 c 8.9,-35.46 -11.8,-72.26 -53,-89.72 -50,-21.13 -104.5,-24.74 -146.9,-23.01 -45.4,1.88 -87.2,20.69 -110.1,50.81 l -0.3,0.44 c 45.6,-22.58 109.7,-25.22 210.6,-11.16" />
          </g>
        </g>
      </g>
      <g id="g470">
        <g clip-path="url(#clipPath476)" id="g472">
          <g transform="scale(1.8554)" id="g478">
            <path id="path486" style="fill:url(#linearGradient484);fill-opacity:1;fill-rule:nonzero;stroke:none" d="m 15915,3111.13 h 101.5 c 154.6,3.12 251.7,-322.95 283.5,-449.23 -11.5,-33.63 -38.9,-65.11 -99.5,-73.57 -100.9,-14.07 -165,-11.42 -210.6,11.16 -83.6,109.89 -125,270.88 -144.9,364.88 -22.6,106.82 70,146.76 70,146.76" />
          </g>
        </g>
      </g>
      <g id="g488">
        <g clip-path="url(#clipPath494)" id="g490">
          <g transform="scale(1.82828)" id="g496">
            <path id="path504" style="fill:url(#linearGradient502);fill-opacity:1;fill-rule:nonzero;stroke:none" d="m 16240.9,3371.96 57.2,-227.48 c 7,-27.89 -6.4,-56.77 -32.2,-70.01 -32,-16.41 -77,-33.69 -118.4,-28.66 -19.5,2.35 -35.7,16.03 -42.1,34.4 l -84,239.35 219.5,52.4" />
          </g>
        </g>
      </g>
      <g id="g506">
        <g clip-path="url(#clipPath512)" id="g508">
          <g transform="scale(1.8293)" id="g514">
            <path id="path522" style="fill:url(#linearGradient520);fill-opacity:1;fill-rule:nonzero;stroke:none" d="m 16300,3304.38 c -71.1,-63.09 -302.5,-71.45 -302.5,-71.45 -833.3,2000.16 -1174.2,2284.31 -1174.2,2284.31 120.3,-754.93 19.4,-2426.33 19.4,-2426.33 -137.5,-60.68 -314.9,0 -314.9,0 -11.1,1235.99 -201.1,2313.83 -425.5,3163.61 563.2,12.63 862.8,205.38 960.6,282.73 469.5,-756.9 1237.1,-3232.87 1237.1,-3232.87" />
          </g>
        </g>
      </g>
      <g id="g524">
        <g clip-path="url(#clipPath530)" id="g526">
          <g transform="scale(1.69638)" id="g532">
            <path id="path540" style="fill:url(#linearGradient538);fill-opacity:1;fill-rule:nonzero;stroke:none" d="m 16088.9,9529.88 c 115,-573.46 73.7,-1599.82 46.7,-2067.93 -7.6,-131.58 84.2,-313.91 158.4,-438.35 11.7,-19.45 4.6,-44.56 -15.5,-54.94 -124,-63.72 -544.4,-261.44 -1031.9,-286.49 -33.2,-1.71 -63.2,19.92 -71.8,52.05 -309.2,1154.58 -661.1,1953.16 -757.2,2161.49 -15.9,34.54 -12.5,75.16 9.7,106.05 488.1,681.5 1661.6,528.12 1661.6,528.12" />
          </g>
        </g>
      </g>
      <g id="g542">
        <g clip-path="url(#clipPath548)" id="g544">
          <g transform="scale(1.66018)" id="g550">
            <path id="path558" style="fill:url(#linearGradient556);fill-opacity:1;fill-rule:nonzero;stroke:none" d="m 16270.6,6131.43 c 5.2,0 10.5,1.39 15.3,4.27 13.9,8.5 18.3,26.57 9.8,40.42 -4.9,8.13 -123.7,200.1 -364.1,316.05 -14.6,7.05 -32.2,0.97 -39.3,-13.67 -7,-14.64 -0.9,-32.23 13.8,-39.27 224,-108.12 338.2,-291.84 339.4,-293.71 5.5,-9.09 15.2,-14.09 25.1,-14.09" />
          </g>
        </g>
      </g>
      <g id="g560">
        <g clip-path="url(#clipPath566)" id="g562">
          <g transform="scale(1.74946)" id="g568">
            <path id="path576" style="fill:url(#linearGradient574);fill-opacity:1;fill-rule:nonzero;stroke:none" d="m 16300,7644.93 c -35.8,-259.05 -141.6,-541.6 -353.3,-841.75 l -80.4,65.62 c 0,0 92.9,376.81 40,804.42 130.6,25.5 284.8,-0.8 393.7,-28.29" />
          </g>
        </g>
      </g>
      <g id="g578">
        <g clip-path="url(#clipPath584)" id="g580">
          <g transform="scale(1.75104)" id="g586">
            <path id="path594" style="fill:url(#linearGradient592);fill-opacity:1;fill-rule:nonzero;stroke:none" d="m 15462.3,8546.91 124.4,685.47 c 0,0 831.1,-635.33 698.6,-1594.36 -108.8,27.47 -262.9,53.74 -393.3,28.27 -38,307.76 -151.5,641.9 -429.7,880.62" />
          </g>
        </g>
      </g>
      <g id="g596">
        <g clip-path="url(#clipPath602)" id="g598">
          <g transform="scale(1.59031)" id="g604">
            <path id="path612" style="fill:url(#linearGradient610);fill-opacity:1;fill-rule:nonzero;stroke:none" d="m 15386.8,9477.61 844.7,-922.78 c 155.3,-436.02 24.1,-724.27 -179.3,-911.84 -108.9,179.53 -232.2,306.86 -328.6,389.3 146,466.26 -336.8,1445.32 -336.8,1445.32" />
          </g>
        </g>
      </g>
      <g id="g614">
        <g clip-path="url(#clipPath620)" id="g616">
          <g transform="scale(1.56613)" id="g622">
            <path id="path630" style="fill:url(#linearGradient628);fill-opacity:1;fill-rule:nonzero;stroke:none" d="m 15966.3,8156.29 c 98,-83.71 223.1,-213.01 333.7,-395.31 -518.3,-573.7 -886.1,-372 -886.1,-372 l -19.1,86.27 c -17,76.56 18.6,155.92 88.3,191.81 233.1,119.91 429.1,316.58 483.2,489.23" />
          </g>
        </g>
      </g>
      <g id="g632">
        <g clip-path="url(#clipPath638)" id="g634">
          <g transform="scale(1.59454)" id="g640">
            <path id="path648" style="fill:url(#linearGradient646);fill-opacity:1;fill-rule:nonzero;stroke:none" d="m 15636.1,10458 170.1,-625.32 c 19.1,-70.24 95.1,-107.93 162.7,-80.9 72.9,29.16 165.5,68.99 245.1,111.94 85.1,45.91 111.7,155.38 57.8,235.58 l -353.5,527.3 -282.2,-168.6" />
          </g>
        </g>
      </g>
      <g id="g650">
        <g clip-path="url(#clipPath656)" id="g652">
          <g transform="scale(1.54616)" id="g658">
            <path id="path666" style="fill:url(#linearGradient664);fill-opacity:1;fill-rule:nonzero;stroke:none" d="m 15741.6,11275.1 c -1.6,-11.1 146.3,-735.8 146.3,-735.8 l 412.1,93.2 -38.2,707.8 c 0,0 -493.4,120.2 -520.2,-65.2" />
          </g>
        </g>
      </g>
      <g id="g668">
        <g clip-path="url(#clipPath674)" id="g670">
          <g transform="scale(1.56994)" id="g676">
            <path id="path684" style="fill:url(#linearGradient682);fill-opacity:1;fill-rule:nonzero;stroke:none" d="m 15924.3,11013.2 48.5,-365.4 c 0.6,-4.7 0.6,-9.3 -0.1,-14 -4.1,-28.6 -25.4,-126.1 -123.8,-98.2 -89.3,25.3 -171.2,47 -227.8,29.7 -25.4,-7.8 -40.7,-33.5 -35.4,-59.5 13.3,-64.9 45.9,-210.4 93.4,-332.6 9.7,-24.8 36.8,-37.8 62.3,-30.4 77.1,22.4 238,74.4 357.8,146.4 16.2,9.7 25.9,27.4 25.1,46.3 -3.9,92.3 -14.7,372.7 -5.6,451.3 8.5,73.8 99,118 138.4,133.8 12.9,5.2 23,15.4 28.1,28.2 18.2,45.7 43.4,151.4 -89.7,194.6 -27.9,9.1 -42.6,39.1 -32.7,66.7 19.7,54.9 28,138.7 -75,184.8 -104.6,46.9 -182.8,-8.8 -225,-54.2 -17.1,-18.3 -44.5,-21.1 -65.6,-7.8 -12.1,7.7 -27.6,10.2 -46.4,-1.6 -25.3,-15.7 -58.8,-4.9 -71.8,21.8 -25.1,51.5 -76.2,106.6 -178.6,89.1 -181.9,-31.2 -202.5,-232.7 -154.5,-350.8 48,-118.1 243.2,-73.1 341.1,-13.6 74.5,45.3 171.1,-2.1 213.1,-27.5 13.3,-8 22.1,-21.7 24.2,-37.1" />
          </g>
        </g>
      </g>
      <g id="g686">
        <g clip-path="url(#clipPath692)" id="g688">
          <g transform="scale(1.57055)" id="g694">
            <path id="path702" style="fill:url(#linearGradient700);fill-opacity:1;fill-rule:nonzero;stroke:none" d="m 16128.7,10649.4 c 0,0 -74.7,209.3 2.1,260.5 76.7,51.2 190.4,24.7 165.4,-126.9 -31.2,-188.6 -167.5,-133.6 -167.5,-133.6" />
          </g>
        </g>
      </g>
      <g id="g704">
        <g clip-path="url(#clipPath710)" id="g706">
          <g transform="scale(2.00466)" id="g712">
            <path id="path720" style="fill:url(#linearGradient718);fill-opacity:1;fill-rule:nonzero;stroke:none" d="m 15713.4,8270.92 -4347.8,-3044.55 445.5,-641.61 4387.4,3014.38 c 93.2,64.05 126.8,185.56 80.2,288.52 -48,105.8 -143.4,242.19 -332.8,381.06 -68.9,50.49 -162.5,51.18 -232.5,2.2" />
          </g>
        </g>
      </g>
      <g id="g722">
        <g clip-path="url(#clipPath728)" id="g724">
          <g transform="scale(1.35244)" id="g730">
            <path id="path738" style="fill:url(#linearGradient736);fill-opacity:1;fill-rule:nonzero;stroke:none" d="m 15288.1,6041.18 696,761.58 c 114.1,-82.59 236,-225.81 315.9,-474.4 l -955.3,-369.92 c -50.7,-19.6 -93.3,42.59 -56.6,82.74" />
          </g>
        </g>
      </g>
      <g id="g740">
        <g clip-path="url(#clipPath746)" id="g742">
          <g transform="scale(1.4526)" id="g748">
            <path id="path756" style="fill:url(#linearGradient754);fill-opacity:1;fill-rule:nonzero;stroke:none" d="m 15685.1,7212.68 c 543.3,-332.85 614.9,-885.45 614.9,-885.45 l -1123.9,-435.22 c -74.4,231.45 -187.9,364.79 -294.2,441.69 l 803.2,878.98" />
          </g>
        </g>
      </g>
      <g transform="scale(1.95115)" id="g758">
        <path id="path760" style="fill:#7d97f4;fill-opacity:1;fill-rule:nonzero;stroke:none" d="m 16296.2,8311.62 c 3.6,5.08 3.8,12.05 0,17.43 -4.8,6.87 -14.2,8.45 -21,3.69 L 12010.3,5333.63 c -6.8,-4.87 -8.4,-14.25 -3.7,-21.06 4.8,-6.82 14.3,-8.46 21.1,-3.64 l 4264.9,2999.1 c 1.4,1.03 2.6,2.26 3.6,3.59" />
      </g>
      <g transform="scale(1.97417)" id="g762">
        <path id="path764" style="fill:#7d97f4;fill-opacity:1;fill-rule:nonzero;stroke:none" d="m 16296.2,7976.74 c 3.5,5.01 3.8,11.9 0.1,17.22 -4.8,6.74 -14.1,8.36 -20.9,3.6 L 12060.3,5033.42 c -6.8,-4.76 -8.4,-14.03 -3.6,-20.77 4.7,-6.74 14,-8.36 20.8,-3.65 l 4215.1,2964.14 c 1.5,1.01 2.6,2.23 3.6,3.6" />
      </g>
      <g id="g766">
        <g clip-path="url(#clipPath772)" id="g768">
          <g transform="scale(1.71439)" id="g774">
            <path id="path782" style="fill:url(#linearGradient780);fill-opacity:1;fill-rule:nonzero;stroke:none" d="m 16224.8,7021 -383.3,31.2 -165.9,-153 c 0,0 39.2,-54.24 162,-23.04 122.7,31.15 290.9,38.85 290.9,38.85 0,0 169.5,-76.41 171.5,66.56 l -75.2,39.43" />
          </g>
        </g>
      </g>
      <g id="g784">
        <g clip-path="url(#clipPath790)" id="g786">
          <g transform="scale(1.4989)" id="g792">
            <path id="path800" style="fill:url(#linearGradient798);fill-opacity:1;fill-rule:nonzero;stroke:none" d="m 16254.4,7614.14 c -37.9,-29.62 -167.7,32.22 -247.2,74.92 -38.7,20.88 -57.5,66.12 -44.2,108.08 19.2,60.31 51,138.17 90.3,147.97 65.1,16.28 357.4,-208.95 201.1,-330.97" />
          </g>
        </g>
      </g>
    </g>
  </g>
</svg>
